<svg preserveAspectRatio="xMidYMid meet" width="100%" height="100%" overflow="visible" style="display: block;" viewBox="0 0 77 26" fill="none" xmlns="http://www.w3.org/2000/svg">
<g id="Logo horizontal-01 2" clip-path="url(#clip0_0_57)">
<g id="Group">
<path id="Vector" d="M6.55291 21.722H5.90237C5.47454 21.722 5.14048 21.6051 4.94708 21.3595L2.19549 18.1792L2.19549 21.0409C2.19549 21.4765 1.95227 21.7191 1.51565 21.7191H0.821155C0.384534 21.7191 0.141315 21.4765 0.141315 21.0409L0.141315 12.0698C0.141315 11.6342 0.384534 11.3916 0.821155 11.3916H1.51565C1.95227 11.3916 2.19549 11.6342 2.19549 12.0698V17.5361L4.93829 14.8C5.13169 14.572 5.45696 14.4668 5.88479 14.4668H6.47672C7.11261 14.4668 7.37048 14.8146 7.01591 15.1888L4.30241 17.8371L7.11261 20.9883C7.43201 21.3888 7.17414 21.722 6.55291 21.722Z" fill="var(--fill-0, white)"/>
<path id="Vector_2" d="M15.4407 17.1676V19.6026C15.4407 21.1373 14.7374 21.719 13.1492 21.719H11.4701C9.665 21.719 8.56319 21.2396 8.56319 19.5062C8.56319 17.764 9.67379 17.2846 11.4701 17.2846H13.3865V17.1676C13.3865 16.355 12.7419 16.0013 11.6635 16.0013C11.1302 16.0013 10.4445 16.089 9.75584 16.2293C9.28992 16.317 9.0086 16.1036 9.0086 15.633V15.3611C9.0086 14.9548 9.23717 14.6888 9.71774 14.5953C10.5236 14.4257 11.3089 14.338 11.9595 14.338C13.9609 14.3351 15.4407 15.1857 15.4407 17.1676ZM13.3836 19.5003V18.7549H11.5727C10.6789 18.7549 10.4914 18.9625 10.4914 19.5062C10.4914 20.044 10.676 20.2516 11.5639 20.2516H12.6422C13.281 20.2516 13.3836 19.9943 13.3836 19.5003Z" fill="var(--fill-0, white)"/>
<path id="Vector_3" d="M24.5545 17.7523V21.0437C24.5545 21.4793 24.3113 21.7219 23.8747 21.7219H23.1802C22.7436 21.7219 22.5004 21.4793 22.5004 21.0437V17.723C22.5004 16.4252 22.0256 16.0627 20.918 16.0627C19.8103 16.0627 19.3356 16.4252 19.3356 17.723V21.0437C19.3356 21.4793 19.0924 21.7219 18.6558 21.7219H17.9613C17.5246 21.7219 17.2814 21.4793 17.2814 21.0437V17.7523C17.2814 15.1039 18.6206 14.3351 20.9209 14.3351C23.2212 14.3351 24.5545 15.1039 24.5545 17.7523Z" fill="var(--fill-0, white)"/>
<path id="Vector_4" d="M33.4386 16.653V21.9644C33.4386 23.92 31.9001 24.8057 29.9104 24.8057C29.2804 24.8057 28.6006 24.718 27.9149 24.5397C27.5222 24.4432 27.3376 24.1772 27.3376 23.7797V23.5078C27.3376 23.0284 27.6189 22.815 28.0907 22.9174C28.6592 23.043 29.1925 23.1249 29.6877 23.1249C30.687 23.1249 31.3815 22.7917 31.3815 21.9673V21.8124C31.0181 21.8416 30.6723 21.8562 30.3471 21.8562C27.7596 21.8562 26.2211 20.9121 26.2211 18.1C26.2211 15.2879 27.7596 14.3379 30.3471 14.3379C32.5067 14.335 33.4386 14.9985 33.4386 16.653ZM31.3815 20.0468V16.9629C31.3815 16.3578 31.2643 16.0626 30.2064 16.0626C28.8526 16.0626 28.2753 16.5712 28.2753 18.1C28.2753 19.6259 28.8526 20.1287 30.2269 20.1287C30.561 20.1257 30.9448 20.0965 31.3815 20.0468Z" fill="var(--fill-0, white)"/>
<path id="Vector_5" d="M41.1578 14.4697H41.8523C42.2889 14.4697 42.5321 14.7123 42.5321 15.1478V18.4393C42.5321 21.0877 41.1929 21.8565 38.8926 21.8565C36.5923 21.8565 35.2531 21.0906 35.2531 18.4393V15.1478C35.2531 14.7123 35.4963 14.4697 35.9329 14.4697H36.6274C37.0641 14.4697 37.3073 14.7123 37.3073 15.1478V18.4685C37.3073 19.7664 37.7791 20.1289 38.8897 20.1289C40.0003 20.1289 40.4721 19.7664 40.4721 18.4685V15.1478C40.4779 14.7123 40.7211 14.4697 41.1578 14.4697Z" fill="var(--fill-0, white)"/>
<path id="Vector_6" d="M48.8252 15.0749V15.5017C48.8252 15.9372 48.5673 16.1799 48.078 16.1886C46.5249 16.212 46.4575 16.3436 46.4575 16.896V21.0411C46.4575 21.4766 46.2143 21.7192 45.7777 21.7192H45.0451C44.6085 21.7192 44.3652 21.4766 44.3652 21.0411V16.6008C44.3652 14.9112 44.9718 14.4552 48.1014 14.4026C48.5732 14.3938 48.8252 14.6306 48.8252 15.0749Z" fill="var(--fill-0, white)"/>
<path id="Vector_7" d="M49.8145 18.0972C49.8145 15.7002 51.139 14.3351 53.5565 14.3351C55.974 14.3351 57.2985 15.7002 57.2985 18.0972C57.2985 20.4884 55.974 21.8535 53.5565 21.8535C51.139 21.8535 49.8145 20.4884 49.8145 18.0972ZM55.2151 18.0972C55.2151 16.6649 54.6671 16.0598 53.5594 16.0598C52.4518 16.0598 51.9038 16.6649 51.9038 18.0972C51.9038 19.5149 52.4518 20.1259 53.5594 20.1259C54.6671 20.1259 55.2151 19.5149 55.2151 18.0972Z" fill="var(--fill-0, white)"/>
</g>
<path id="Vector_8" d="M73.204 3.66885L70.6165 0.330608C70.5578 0.254606 70.4377 0.266299 70.3938 0.35107C70.2297 0.669693 69.9571 1.38587 70.2707 2.1985L73.204 3.66885Z" fill="var(--fill-0, white)"/>
<path id="Vector_9" d="M76.4815 6.90748L75.1423 5.39622C74.6178 4.80574 73.9819 4.31465 73.2669 3.95803L68.1651 1.40027C68.0567 1.34473 67.9278 1.42073 67.9248 1.53766C67.919 2.3006 68.2237 4.5485 72.0303 4.64497C71.6757 4.6362 71.1775 5.15359 70.9959 5.37868C70.5416 5.937 70.5006 6.64732 70.2545 7.28749C70.0142 7.91305 69.5102 8.45968 69.0179 8.92446C67.8809 9.99725 67.7051 10.0996 66.2458 10.7047C66.2458 10.7047 66.0699 10.7865 65.8179 10.9064C65.8091 10.9093 65.8003 10.9122 65.7945 10.9151C65.2729 11.1168 64.7689 11.3682 64.2971 11.6605C63.3564 12.2481 62.5272 13.0139 61.9264 13.9289C60.4613 16.1622 60.092 19.3046 59.4562 21.7279C58.9316 23.7331 57.1119 25.1626 50.9435 24.8264C50.8204 24.8205 50.794 24.9872 50.9142 25.0135C56.5991 26.2821 60.9155 26.3815 62.114 23.8208C62.1696 23.6776 62.2253 23.5344 62.2781 23.3882C62.5096 22.7685 62.6971 22.1926 62.8524 21.6548C62.9315 21.6957 63.0136 21.7337 63.1044 21.7659C63.0956 21.7951 63.0868 21.8243 63.0781 21.8565C62.911 22.3943 62.6971 22.9819 62.4568 23.6074C62.281 24.1161 62.3953 24.3587 62.9022 24.3908C62.9374 24.3938 62.9784 24.3938 63.0195 24.3938L64.1476 24.3821C64.1037 24.5019 64.0627 24.6218 64.0158 24.7416C63.796 25.4052 63.9366 25.7238 64.5755 25.7647C64.6223 25.7706 64.6692 25.7706 64.722 25.7706H73.5277C73.5365 25.7501 73.5365 25.7472 73.5482 25.7267L73.2581 25.4578C72.5548 24.7942 71.5936 24.3879 70.5329 24.3879C70.4977 24.3879 70.4625 24.3879 70.4244 24.3879C68.9182 24.4142 65.4399 24.9375 65.9703 24.3879C65.9762 24.3792 65.982 24.3733 65.9879 24.3645C65.9879 24.3645 69.4076 24.3324 69.4105 24.3295L69.1468 24.0927C68.5842 23.5841 67.8809 23.3327 67.034 23.3327C67.0047 23.3327 66.9783 23.3327 66.949 23.3327C66.8875 23.3327 66.823 23.3356 66.7556 23.3385C66.8875 23.1397 67.0135 22.9439 67.1278 22.7422C67.4179 22.2394 67.6553 21.7308 67.8487 21.2105C69.4545 20.8597 70.8024 19.9827 71.6288 18.8135C71.075 19.1759 69.5688 19.0181 67.9454 18.375C66.0524 17.6267 64.722 16.51 64.9711 15.8816C64.9916 15.8289 65.0209 15.7851 65.0619 15.7412C65.0619 16.2294 65.7886 16.9193 66.8934 17.5244C66.9783 17.4542 67.0897 17.3607 67.2362 17.2291C67.623 16.8783 68.0655 16.4311 68.2589 16.0833C68.3029 16.0043 68.3439 15.9225 68.382 15.8406C68.4406 15.712 68.4904 15.5775 68.5344 15.4402C68.549 15.4051 68.5637 15.3759 68.5783 15.3437C68.5842 15.3291 68.593 15.3145 68.6018 15.2998C68.6486 15.2063 68.7043 15.1215 68.76 15.0485C68.845 14.9374 68.9417 14.8468 69.0442 14.7766C69.0296 14.7854 69.012 14.7941 68.9974 14.8029C67.456 14.7386 67.3271 13.7798 67.33 13.4524C67.33 13.3998 67.3857 13.3676 67.4296 13.391L69.5893 14.5048C69.6391 14.5311 69.686 14.5574 69.7329 14.5866C69.894 14.5837 70.0757 14.6012 70.275 14.6684C70.6559 14.8205 70.9519 15.1274 71.1219 15.4986C71.157 15.5775 71.1951 15.6535 71.2361 15.7266C71.3944 16.016 71.5966 16.2762 71.8281 16.513C71.8398 16.5246 71.8486 16.5451 71.8456 16.5626C71.8193 16.8988 71.6229 17.0859 71.2186 17.083C70.9783 17.08 70.7468 17.0099 70.5358 16.8959C70.5123 16.8842 70.4889 16.8725 70.4684 16.8608C70.4449 16.8491 70.4244 16.8374 70.401 16.8287C70.3658 16.8053 70.3072 16.7936 70.2691 16.7819C70.2252 16.7702 70.1812 16.7585 70.1373 16.7527C70.0552 16.741 69.9702 16.741 69.8882 16.7614C69.4633 16.8667 69.1058 17.4659 69.0882 17.881C69.0823 18.0242 69.1204 18.2727 69.2201 18.4481C70.486 18.7726 71.5497 18.7492 71.9013 18.3925C72.2149 18.0768 72.3262 17.5214 72.4171 17.0976C72.6046 16.2265 72.6046 15.2706 72.3409 14.4141C72.2823 14.2271 72.1299 13.7389 71.9423 13.6453C72.1856 13.7681 72.0596 13.6833 72.2823 13.8061C72.3292 13.8324 72.379 13.8587 72.4259 13.888C73.3987 14.4755 74.1548 15.4782 74.9372 16.2879C74.987 16.3376 75.0309 16.3902 75.072 16.4399C75.0837 16.4545 75.0954 16.4691 75.1071 16.4837C75.1306 16.513 75.1774 16.4954 75.1745 16.4574C75.1716 16.4428 75.1716 16.4282 75.1687 16.4136C75.1101 15.8289 74.6353 15.2472 74.313 14.7854C73.7738 14.0107 73.1262 13.3823 72.4493 12.7333C72.1944 12.4878 71.8779 12.2744 71.7372 11.9411C71.3358 10.9911 71.7665 10.0616 72.2764 9.246C72.2969 9.21385 72.3086 9.19339 72.3086 9.19339L72.3409 9.14077C72.3409 9.14077 72.335 9.14662 72.3292 9.15246C72.4024 9.02385 72.4757 8.89523 72.5548 8.76953C72.6515 8.61753 72.7628 8.46845 72.8537 8.31352C72.9387 8.16736 73.0676 8.02413 73.2053 7.92182C73.2639 7.87797 73.3284 7.83705 73.3929 7.80197C73.9379 7.54473 75.0983 7.5915 75.6082 7.7552C75.8632 7.83705 76.1415 7.73181 76.2705 7.50673L76.5166 7.07703C76.5283 7.02149 76.5225 6.95425 76.4815 6.90748ZM64.7894 22.4586C64.6868 22.7977 64.5725 23.1514 64.4465 23.5197C64.0597 23.5314 63.8517 23.4905 64.0099 23.3297C64.344 22.9468 64.6282 22.558 64.8744 22.1605C64.848 22.2599 64.8216 22.3593 64.7894 22.4586ZM69.7505 14.458L68.4377 13.7272C68.4318 13.7243 68.4289 13.7213 68.4289 13.7155C68.3029 13.3326 68.4201 12.9993 68.5021 12.8298C68.5314 12.7742 68.6076 12.7684 68.6457 12.8181L69.7768 14.4287C69.7915 14.4463 69.771 14.4697 69.7505 14.458Z" fill="var(--fill-0, white)"/>
</g>
<defs>
<clipPath id="clip0_0_57">
<rect width="77" height="26" fill="white"/>
</clipPath>
</defs>
</svg>
