<svg width="48" height="48" viewBox="0 0 48 48" fill="none" xmlns="http://www.w3.org/2000/svg">
<g clip-path="url(#clip0_306_825)">
<path d="M20 31H28C28.5304 31 29.0391 31.2107 29.4142 31.5858C29.7893 31.9609 30 32.4696 30 33V47H18V33C18 32.4696 18.2107 31.9609 18.5858 31.5858C18.9609 31.2107 19.4696 31 20 31Z" stroke="white" stroke-width="2" stroke-linecap="round" stroke-linejoin="round"/>
<path d="M39.0001 16.7999V6.99987C39.0001 6.73466 38.8947 6.4803 38.7072 6.29277C38.5197 6.10523 38.2653 5.99987 38.0001 5.99987H34.0001C33.7349 5.99987 33.4805 6.10523 33.293 6.29277C33.1055 6.4803 33.0001 6.73466 33.0001 6.99987V11.2799L24.6761 3.62187C24.4914 3.45152 24.2494 3.35693 23.9981 3.35693C23.7468 3.35693 23.5048 3.45152 23.3201 3.62187L1.32009 24.2639C1.17172 24.4003 1.06806 24.5785 1.0227 24.7749C0.977352 24.9713 0.992428 25.1769 1.06595 25.3646C1.13948 25.5523 1.26803 25.7134 1.43473 25.8268C1.60143 25.9401 1.7985 26.0005 2.00009 25.9999H7.00009V44.9999C7.00009 45.5303 7.21081 46.039 7.58588 46.4141C7.96095 46.7892 8.46966 46.9999 9.00009 46.9999H39.0001C39.5305 46.9999 40.0392 46.7892 40.4143 46.4141C40.7894 46.039 41.0001 45.5303 41.0001 44.9999V25.9999H46.0001C46.2015 26.0001 46.3983 25.9394 46.5647 25.8259C46.7311 25.7124 46.8593 25.5513 46.9326 25.3637C47.0059 25.176 47.0208 24.9707 46.9754 24.7744C46.93 24.5782 46.8263 24.4002 46.6781 24.2639L39.0001 16.7999Z" stroke="white" stroke-width="2" stroke-linecap="round" stroke-linejoin="round"/>
</g>
<defs>
<clipPath id="clip0_306_825">
<rect width="48" height="48" fill="white"/>
</clipPath>
</defs>
</svg>
