<svg width="48" height="48" viewBox="0 0 48 48" fill="none" xmlns="http://www.w3.org/2000/svg">
<path d="M17.8921 10.0601L6.72406 3.35811C6.41294 3.1715 6.05691 3.07302 5.6941 3.07324C5.3313 3.07346 4.97539 3.17236 4.66449 3.35936C4.35359 3.54635 4.09941 3.81439 3.92917 4.13477C3.75893 4.45515 3.67904 4.81581 3.69806 5.17811L5.49806 16.4241" stroke="white" stroke-width="2" stroke-linecap="round" stroke-linejoin="round"/>
<path d="M29.1079 10.0601L40.2759 3.35811C40.587 3.1715 40.9431 3.07302 41.3059 3.07324C41.6687 3.07346 42.0246 3.17236 42.3355 3.35936C42.6464 3.54635 42.9006 3.81439 43.0708 4.13477C43.241 4.45515 43.3209 4.81581 43.3019 5.17811L41.5019 16.4241" stroke="white" stroke-width="2" stroke-linecap="round" stroke-linejoin="round"/>
<path d="M27.5 31.9302C27.248 32.796 26.7218 33.5567 26.0005 34.098C25.2792 34.6393 24.4018 34.9319 23.5 34.9319C22.5982 34.9319 21.7208 34.6393 20.9995 34.098C20.2782 33.5567 19.752 32.796 19.5 31.9302C19.5 30.8262 21.29 29.9302 23.5 29.9302C25.71 29.9302 27.5 30.8262 27.5 31.9302Z" stroke="white" stroke-width="2" stroke-linecap="round" stroke-linejoin="round"/>
<path d="M32.5 22.4302C32.6326 22.4302 32.7598 22.4829 32.8536 22.5766C32.9473 22.6704 33 22.7976 33 22.9302" stroke="white" stroke-width="2" stroke-linecap="round" stroke-linejoin="round"/>
<path d="M32 22.9302C32 22.7976 32.0527 22.6704 32.1464 22.5766C32.2402 22.4829 32.3674 22.4302 32.5 22.4302" stroke="white" stroke-width="2" stroke-linecap="round" stroke-linejoin="round"/>
<path d="M32.5 23.4302C32.3674 23.4302 32.2402 23.3775 32.1464 23.2837C32.0527 23.19 32 23.0628 32 22.9302" stroke="white" stroke-width="2" stroke-linecap="round" stroke-linejoin="round"/>
<path d="M33 22.9302C33 23.0628 32.9473 23.19 32.8536 23.2837C32.7598 23.3775 32.6326 23.4302 32.5 23.4302" stroke="white" stroke-width="2" stroke-linecap="round" stroke-linejoin="round"/>
<path d="M14.5 22.4302C14.6326 22.4302 14.7598 22.4829 14.8536 22.5766C14.9473 22.6704 15 22.7976 15 22.9302" stroke="white" stroke-width="2" stroke-linecap="round" stroke-linejoin="round"/>
<path d="M14 22.9302C14 22.7976 14.0527 22.6704 14.1464 22.5766C14.2402 22.4829 14.3674 22.4302 14.5 22.4302" stroke="white" stroke-width="2" stroke-linecap="round" stroke-linejoin="round"/>
<path d="M14.5 23.4302C14.3674 23.4302 14.2402 23.3775 14.1464 23.2837C14.0527 23.19 14 23.0628 14 22.9302" stroke="white" stroke-width="2" stroke-linecap="round" stroke-linejoin="round"/>
<path d="M15 22.9302C15 23.0628 14.9473 23.19 14.8536 23.2837C14.7598 23.3775 14.6326 23.4302 14.5 23.4302" stroke="white" stroke-width="2" stroke-linecap="round" stroke-linejoin="round"/>
<path d="M16.6802 38.5682C17.3659 38.8052 18.0932 38.8982 18.8166 38.8412C19.5399 38.7842 20.2437 38.5785 20.8839 38.237C21.524 37.8955 22.0868 37.4256 22.537 36.8566C22.9872 36.2876 23.3151 35.6317 23.5002 34.9302" stroke="white" stroke-width="2" stroke-linecap="round" stroke-linejoin="round"/>
<path d="M30.32 38.5682C29.6342 38.8052 28.9069 38.8982 28.1836 38.8412C27.4603 38.7842 26.7565 38.5785 26.1163 38.237C25.4761 37.8955 24.9133 37.4256 24.4632 36.8566C24.013 36.2876 23.6851 35.6317 23.5 34.9302" stroke="white" stroke-width="2" stroke-linecap="round" stroke-linejoin="round"/>
<path d="M23.5 9.01416V18.0142" stroke="white" stroke-width="2" stroke-linecap="round" stroke-linejoin="round"/>
<path d="M17.5 10.2222V15.9302" stroke="white" stroke-width="2" stroke-linecap="round" stroke-linejoin="round"/>
<path d="M29.5 10.2222V15.9302" stroke="white" stroke-width="2" stroke-linecap="round" stroke-linejoin="round"/>
<path d="M35.48 41.6719C31.8653 43.8461 27.718 44.974 23.5 44.9299C19.2821 44.974 15.1347 43.8461 11.52 41.6719" stroke="white" stroke-width="2" stroke-linecap="round" stroke-linejoin="round"/>
<path d="M41.29 27.8642C40.052 18.6642 33.428 8.93018 23.5 8.93018C13.572 8.93018 6.94796 18.6742 5.70996 27.8642" stroke="white" stroke-width="2" stroke-linecap="round" stroke-linejoin="round"/>
<path d="M35.48 41.6719C31.8653 43.8461 27.718 44.974 23.5 44.9299C19.2821 44.974 15.1347 43.8461 11.52 41.6719" stroke="white" stroke-width="2" stroke-linecap="round" stroke-linejoin="round"/>
<path d="M41.29 27.8642C40.052 18.6642 33.428 8.93018 23.5 8.93018C13.572 8.93018 6.94796 18.6742 5.70996 27.8642" stroke="white" stroke-width="2" stroke-linecap="round" stroke-linejoin="round"/>
<path d="M33.5 31.9302H46.5" stroke="white" stroke-width="2" stroke-linecap="round" stroke-linejoin="round"/>
<path d="M32.5 35.9302L44.5 40.9302" stroke="white" stroke-width="2" stroke-linecap="round" stroke-linejoin="round"/>
<path d="M13.5 32.9302L1.5 30.9302" stroke="white" stroke-width="2" stroke-linecap="round" stroke-linejoin="round"/>
<path d="M13.5 36.9302L2.5 40.9302" stroke="white" stroke-width="2" stroke-linecap="round" stroke-linejoin="round"/>
</svg>
