<svg width="50" height="50" viewBox="0 0 50 50" fill="none" xmlns="http://www.w3.org/2000/svg">
<g clip-path="url(#clip0_62_1750)">
<path d="M23 5V2.33333C23 1.97971 22.8645 1.64057 22.6234 1.39052C22.3823 1.14048 22.0553 1 21.7143 1H15.2857C14.9447 1 14.6177 1.14048 14.3766 1.39052C14.1355 1.64057 14 1.97971 14 2.33333V5H23Z" fill="#EEE2FF"/>
<path d="M23 14.3364C23 15.0699 22.6145 15.2179 22.1531 14.6672L18.5019 10.3359L14.8469 14.6645C14.3804 15.2166 14 15.0645 14 14.3351V2.33351C14 1.97984 14.1354 1.64066 14.3764 1.39058C14.6174 1.14049 14.9443 1 15.2852 1H21.711C22.0518 1 22.3787 1.14049 22.6197 1.39058C22.8607 1.64066 22.9961 1.97984 22.9961 2.33351L23 14.3364Z" stroke="#C396FF" stroke-width="1.5" stroke-linecap="round" stroke-linejoin="round"/>
<path d="M27 11L32 11" stroke="#C396FF" stroke-width="1.5" stroke-linecap="round" stroke-linejoin="round"/>
<path d="M16.6665 17.7083H32.2915" stroke="#C396FF" stroke-width="1.5" stroke-linecap="round" stroke-linejoin="round"/>
<path d="M16.6665 23.9583H38.5415" stroke="#C396FF" stroke-width="1.5" stroke-linecap="round" stroke-linejoin="round"/>
<path d="M31.2498 30.2084H16.6665C16.3431 30.2084 16.0241 30.1331 15.7348 29.9885C15.4455 29.8438 15.1939 29.6338 14.9998 29.3751L13.1248 26.8751C12.9308 26.6163 12.6791 26.4063 12.3899 26.2617C12.1006 26.1171 11.7816 26.0417 11.4582 26.0417H6.24984C5.6973 26.0417 5.1674 26.2612 4.7767 26.6519C4.386 27.0426 4.1665 27.5725 4.1665 28.1251V46.8751C4.1665 47.4276 4.386 47.9575 4.7767 48.3482C5.1674 48.7389 5.6973 48.9584 6.24984 48.9584H31.2498C31.8024 48.9584 32.3323 48.7389 32.723 48.3482C33.1137 47.9575 33.3332 47.4276 33.3332 46.8751V32.2917C33.3332 31.7392 33.1137 31.2093 32.723 30.8186C32.3323 30.4279 31.8024 30.2084 31.2498 30.2084Z" fill="white"/>
<path d="M16.6665 30.2084C16.3431 30.2084 16.0241 30.1331 15.7348 29.9885C15.4455 29.8438 15.1939 29.6338 14.9998 29.3751L13.1248 26.8751C12.9308 26.6163 12.6791 26.4063 12.3899 26.2617C12.1006 26.1171 11.7816 26.0417 11.4582 26.0417H6.24984C5.6973 26.0417 5.1674 26.2612 4.7767 26.6519C4.386 27.0426 4.1665 27.5725 4.1665 28.1251V46.8751C4.1665 47.4276 4.386 47.9575 4.7767 48.3482C5.1674 48.7389 5.6973 48.9584 6.24984 48.9584H8.18734L26.9373 30.2084H16.6665Z" fill="#EEE2FF"/>
<path d="M31.2498 30.2084H16.6665C16.3431 30.2084 16.0241 30.1331 15.7348 29.9885C15.4455 29.8438 15.1939 29.6338 14.9998 29.3751L13.1248 26.8751C12.9308 26.6163 12.6791 26.4063 12.3899 26.2617C12.1006 26.1171 11.7816 26.0417 11.4582 26.0417H6.24984C5.6973 26.0417 5.1674 26.2612 4.7767 26.6519C4.386 27.0426 4.1665 27.5725 4.1665 28.1251V46.8751C4.1665 47.4276 4.386 47.9575 4.7767 48.3482C5.1674 48.7389 5.6973 48.9584 6.24984 48.9584H31.2498C31.8024 48.9584 32.3323 48.7389 32.723 48.3482C33.1137 47.9575 33.3332 47.4276 33.3332 46.8751V32.2917C33.3332 31.7392 33.1137 31.2093 32.723 30.8186C32.3323 30.4279 31.8024 30.2084 31.2498 30.2084Z" stroke="#C396FF" stroke-width="1.5" stroke-linecap="round" stroke-linejoin="round"/>
<path d="M10.4165 26.0416V3.12492C10.4165 2.57238 10.636 2.04248 11.0267 1.65178C11.4174 1.26108 11.9473 1.04159 12.4998 1.04159H34.5623C34.86 1.03874 35.1536 1.11036 35.4165 1.24992L45.6248 11.4583C45.7644 11.7212 45.836 12.0148 45.8332 12.3124V42.7082C45.8332 43.2608 45.6137 43.7907 45.223 44.1814C44.8323 44.5721 44.3024 44.7916 43.7498 44.7916H33.3332" stroke="#C396FF" stroke-width="1.5" stroke-linecap="round" stroke-linejoin="round"/>
<path d="M45.6248 11.4583H37.4998C36.9473 11.4583 36.4174 11.2388 36.0267 10.8481C35.636 10.4574 35.4165 9.92754 35.4165 9.375V1.25C35.644 1.33691 35.8501 1.47193 36.0207 1.64583L45.229 10.8542C45.4029 11.0247 45.5379 11.2308 45.6248 11.4583Z" fill="#EEE2FF"/>
<path d="M45.6248 11.4583H37.4998C36.9473 11.4583 36.4174 11.2388 36.0267 10.8481C35.636 10.4574 35.4165 9.92754 35.4165 9.375V1.25C35.644 1.33691 35.8501 1.47193 36.0207 1.64583L45.229 10.8542C45.4029 11.0247 45.5379 11.2308 45.6248 11.4583Z" stroke="#C396FF" stroke-width="1.5" stroke-linecap="round" stroke-linejoin="round"/>
</g>
<defs>
<clipPath id="clip0_62_1750">
<rect width="50" height="50" fill="white"/>
</clipPath>
</defs>
</svg>
