<svg width="48" height="48" viewBox="0 0 48 48" fill="none" xmlns="http://www.w3.org/2000/svg">
<g clip-path="url(#clip0_306_984)">
<path d="M47.0001 24.0001C46.997 22.3967 46.5122 20.8312 45.6085 19.5066C44.7048 18.1821 43.4239 17.1597 41.9321 16.5721C42.575 15.1023 42.7598 13.4729 42.4623 11.8965C42.1648 10.32 41.3989 8.86999 40.2645 7.73563C39.1302 6.60127 37.6801 5.83533 36.1037 5.53785C34.5273 5.24036 32.8978 5.42515 31.4281 6.06808C30.8428 4.57465 29.821 3.29231 28.4959 2.38839C27.1709 1.48448 25.6041 1.00098 24.0001 1.00098C22.3961 1.00098 20.8293 1.48448 19.5042 2.38839C18.1792 3.29231 17.1573 4.57465 16.5721 6.06808C15.1023 5.42515 13.4729 5.24036 11.8965 5.53785C10.32 5.83533 8.86999 6.60127 7.73563 7.73563C6.60127 8.86999 5.83533 10.32 5.53785 11.8965C5.24036 13.4729 5.42515 15.1023 6.06808 16.5721C4.57465 17.1573 3.29231 18.1792 2.38839 19.5042C1.48448 20.8293 1.00098 22.3961 1.00098 24.0001C1.00098 25.6041 1.48448 27.1709 2.38839 28.4959C3.29231 29.821 4.57465 30.8428 6.06808 31.4281C5.42515 32.8978 5.24036 34.5273 5.53785 36.1037C5.83533 37.6801 6.60127 39.1302 7.73563 40.2645C8.86999 41.3989 10.32 42.1648 11.8965 42.4623C13.4729 42.7598 15.1023 42.575 16.5721 41.9321C17.1573 43.4255 18.1792 44.7079 19.5042 45.6118C20.8293 46.5157 22.3961 46.9992 24.0001 46.9992C25.6041 46.9992 27.1709 46.5157 28.4959 45.6118C29.821 44.7079 30.8428 43.4255 31.4281 41.9321C32.8978 42.575 34.5273 42.7598 36.1037 42.4623C37.6801 42.1648 39.1302 41.3989 40.2645 40.2645C41.3989 39.1302 42.1648 37.6801 42.4623 36.1037C42.7598 34.5273 42.575 32.8978 41.9321 31.4281C43.4239 30.8404 44.7048 29.818 45.6085 28.4935C46.5122 27.169 46.997 25.6035 47.0001 24.0001Z" stroke="white" stroke-width="2" stroke-linecap="round" stroke-linejoin="round"/>
<path d="M25.67 23.902C25.4879 23.6251 25.2399 23.3979 24.9482 23.2406C24.6566 23.0833 24.3304 23.001 23.999 23.001C23.6676 23.001 23.3415 23.0833 23.0498 23.2406C22.7581 23.3979 22.5101 23.6251 22.328 23.902L17.864 29.702C17.6659 30.0036 17.5531 30.3532 17.5375 30.7138C17.5219 31.0743 17.6042 31.4323 17.7756 31.7499C17.947 32.0675 18.2011 32.3327 18.5111 32.5176C18.821 32.7025 19.1751 32.8001 19.536 32.8H28.462C28.8229 32.8001 29.177 32.7025 29.487 32.5176C29.7969 32.3327 30.051 32.0675 30.2224 31.7499C30.3938 31.4323 30.4761 31.0743 30.4605 30.7138C30.4449 30.3532 30.3321 30.0036 30.134 29.702L25.67 23.902Z" stroke="white" stroke-width="2" stroke-linecap="round" stroke-linejoin="round"/>
<path d="M21 16C21 16.7956 21.3161 17.5587 21.8787 18.1213C22.4413 18.6839 23.2044 19 24 19C24.7956 19 25.5587 18.6839 26.1213 18.1213C26.6839 17.5587 27 16.7956 27 16C27 15.2044 26.6839 14.4413 26.1213 13.8787C25.5587 13.3161 24.7956 13 24 13C23.2044 13 22.4413 13.3161 21.8787 13.8787C21.3161 14.4413 21 15.2044 21 16Z" stroke="white" stroke-width="2" stroke-linecap="round" stroke-linejoin="round"/>
<path d="M12 22C12 22.7956 12.3161 23.5587 12.8787 24.1213C13.4413 24.6839 14.2044 25 15 25C15.7956 25 16.5587 24.6839 17.1213 24.1213C17.6839 23.5587 18 22.7956 18 22C18 21.2044 17.6839 20.4413 17.1213 19.8787C16.5587 19.3161 15.7956 19 15 19C14.2044 19 13.4413 19.3161 12.8787 19.8787C12.3161 20.4413 12 21.2044 12 22Z" stroke="white" stroke-width="2" stroke-linecap="round" stroke-linejoin="round"/>
<path d="M30 22C30 22.7956 30.3161 23.5587 30.8787 24.1213C31.4413 24.6839 32.2044 25 33 25C33.7956 25 34.5587 24.6839 35.1213 24.1213C35.6839 23.5587 36 22.7956 36 22C36 21.2044 35.6839 20.4413 35.1213 19.8787C34.5587 19.3161 33.7956 19 33 19C32.2044 19 31.4413 19.3161 30.8787 19.8787C30.3161 20.4413 30 21.2044 30 22Z" stroke="white" stroke-width="2" stroke-linecap="round" stroke-linejoin="round"/>
</g>
<defs>
<clipPath id="clip0_306_984">
<rect width="48" height="48" fill="white"/>
</clipPath>
</defs>
</svg>
