<svg width="48" height="48" viewBox="0 0 48 48" fill="none" xmlns="http://www.w3.org/2000/svg">
<path d="M41.7398 24.8201C41.1933 24.9254 40.6298 24.9006 40.0947 24.7477C39.5597 24.5949 39.0681 24.3182 38.6598 23.9401C37.1598 37.8001 30.9598 44.5001 23.9998 44.5001C17.0398 44.5001 10.8398 37.8001 9.33976 23.9401C8.93143 24.3182 8.43985 24.5949 7.90479 24.7477C7.36972 24.9006 6.80619 24.9254 6.25976 24.8201C1.33976 23.8401 -2.02024 7.08014 5.07976 4.70014C8.8828 3.23094 13.0967 3.23094 16.8998 4.70014C21.4962 3.09019 26.5033 3.09019 31.0998 4.70014C34.9028 3.23094 39.1167 3.23094 42.9198 4.70014C50.0198 7.08014 46.6598 23.8401 41.7398 24.8201Z" stroke="white" stroke-width="2" stroke-linecap="round" stroke-linejoin="round"/>
<path d="M20 31.5C20 32.2956 20.4214 33.0587 21.1716 33.6213C21.9217 34.1839 22.9391 34.5 24 34.5C25.0609 34.5 26.0783 34.1839 26.8284 33.6213C27.5786 33.0587 28 32.2956 28 31.5C28 30.7044 27.5786 29.9413 26.8284 29.3787C26.0783 28.8161 25.0609 28.5 24 28.5C22.9391 28.5 21.9217 28.8161 21.1716 29.3787C20.4214 29.9413 20 30.7044 20 31.5Z" stroke="white" stroke-width="2" stroke-linecap="round" stroke-linejoin="round"/>
<path d="M29.5 21.5C29.6326 21.5 29.7598 21.5527 29.8536 21.6464C29.9473 21.7402 30 21.8674 30 22" stroke="white" stroke-width="2" stroke-linecap="round" stroke-linejoin="round"/>
<path d="M29 22C29 21.8674 29.0527 21.7402 29.1464 21.6464C29.2402 21.5527 29.3674 21.5 29.5 21.5" stroke="white" stroke-width="2" stroke-linecap="round" stroke-linejoin="round"/>
<path d="M29.5 22.5C29.3674 22.5 29.2402 22.4473 29.1464 22.3536C29.0527 22.2598 29 22.1326 29 22" stroke="white" stroke-width="2" stroke-linecap="round" stroke-linejoin="round"/>
<path d="M30 22C30 22.1326 29.9473 22.2598 29.8536 22.3536C29.7598 22.4473 29.6326 22.5 29.5 22.5" stroke="white" stroke-width="2" stroke-linecap="round" stroke-linejoin="round"/>
<path d="M18.5 21.5C18.6326 21.5 18.7598 21.5527 18.8536 21.6464C18.9473 21.7402 19 21.8674 19 22" stroke="white" stroke-width="2" stroke-linecap="round" stroke-linejoin="round"/>
<path d="M18 22C18 21.8674 18.0527 21.7402 18.1464 21.6464C18.2402 21.5527 18.3674 21.5 18.5 21.5" stroke="white" stroke-width="2" stroke-linecap="round" stroke-linejoin="round"/>
<path d="M18.5 22.5C18.3674 22.5 18.2402 22.4473 18.1464 22.3536C18.0527 22.2598 18 22.1326 18 22" stroke="white" stroke-width="2" stroke-linecap="round" stroke-linejoin="round"/>
<path d="M19 22C19 22.1326 18.9473 22.2598 18.8536 22.3536C18.7598 22.4473 18.6326 22.5 18.5 22.5" stroke="white" stroke-width="2" stroke-linecap="round" stroke-linejoin="round"/>
<path d="M31.4621 41.5C29.5957 41.3909 27.8268 40.6305 26.4633 39.3515C25.0998 38.0724 24.2281 36.3556 24.0001 34.5C23.772 36.3556 22.9004 38.0724 21.5369 39.3515C20.1734 40.6305 18.4044 41.3909 16.5381 41.5" stroke="white" stroke-width="2" stroke-linecap="round" stroke-linejoin="round"/>
<path d="M9.33984 23.9399V23.9199" stroke="white" stroke-width="2" stroke-linecap="round" stroke-linejoin="round"/>
<path d="M38.6602 23.9399V23.9199" stroke="white" stroke-width="2" stroke-linecap="round" stroke-linejoin="round"/>
<path d="M14.5398 11.7998C14.5398 11.7998 12.9998 20.9398 9.33984 23.9198V23.9398" stroke="white" stroke-width="2" stroke-linecap="round" stroke-linejoin="round"/>
<path d="M38.66 23.9398V23.9198C35 20.9398 33.46 11.7998 33.46 11.7998" stroke="white" stroke-width="2" stroke-linecap="round" stroke-linejoin="round"/>
</svg>
