<svg xmlns="http://www.w3.org/2000/svg" height="1024" width="1024" viewBox="0 0 33 33"><path fill="#ffffff" d="M0,0 h33v33H0z" shapeRendering="crispEdges"></path><path fill="#000000" d="M2 2h7v1H2zM11 2h2v1H11zM21 2h1v1H21zM24,2 h7v1H24zM2 3h1v1H2zM8 3h1v1H8zM10 3h1v1H10zM15 3h1v1H15zM18 3h3v1H18zM24 3h1v1H24zM30,3 h1v1H30zM2 4h1v1H2zM4 4h3v1H4zM8 4h1v1H8zM10 4h1v1H10zM13 4h3v1H13zM18 4h1v1H18zM20 4h3v1H20zM24 4h1v1H24zM26 4h3v1H26zM30,4 h1v1H30zM2 5h1v1H2zM4 5h3v1H4zM8 5h1v1H8zM11 5h1v1H11zM13 5h3v1H13zM18 5h2v1H18zM21 5h1v1H21zM24 5h1v1H24zM26 5h3v1H26zM30,5 h1v1H30zM2 6h1v1H2zM4 6h3v1H4zM8 6h1v1H8zM12 6h1v1H12zM17 6h3v1H17zM21 6h1v1H21zM24 6h1v1H24zM26 6h3v1H26zM30,6 h1v1H30zM2 7h1v1H2zM8 7h1v1H8zM11 7h3v1H11zM15 7h1v1H15zM17 7h1v1H17zM21 7h2v1H21zM24 7h1v1H24zM30,7 h1v1H30zM2 8h7v1H2zM10 8h1v1H10zM12 8h1v1H12zM14 8h1v1H14zM16 8h1v1H16zM18 8h1v1H18zM20 8h1v1H20zM22 8h1v1H22zM24,8 h7v1H24zM12 9h2v1H12zM15 9h2v1H15zM19 9h4v1H19zM3 10h3v1H3zM7 10h2v1H7zM11 10h1v1H11zM13 10h1v1H13zM15 10h1v1H15zM17 10h1v1H17zM21 10h2v1H21zM28 10h2v1H28zM3 11h2v1H3zM6 11h1v1H6zM16 11h1v1H16zM18 11h1v1H18zM20 11h2v1H20zM24 11h1v1H24zM26 11h3v1H26zM30,11 h1v1H30zM7 12h2v1H7zM12 12h1v1H12zM20 12h1v1H20zM22 12h1v1H22zM24 12h1v1H24zM26 12h2v1H26zM29 12h1v1H29zM2 13h2v1H2zM5 13h1v1H5zM7 13h1v1H7zM10 13h2v1H10zM14 13h1v1H14zM16 13h2v1H16zM20 13h1v1H20zM30,13 h1v1H30zM2 14h4v1H2zM8 14h1v1H8zM14 14h1v1H14zM17 14h4v1H17zM22 14h2v1H22zM25 14h1v1H25zM27,14 h4v1H27zM3 15h2v1H3zM6 15h2v1H6zM9 15h3v1H9zM13 15h4v1H13zM18 15h1v1H18zM21 15h1v1H21zM24 15h2v1H24zM27 15h2v1H27zM30,15 h1v1H30zM4 16h8v1H4zM14 16h1v1H14zM16 16h7v1H16zM24 16h4v1H24zM29,16 h2v1H29zM2 17h1v1H2zM5 17h3v1H5zM11 17h1v1H11zM15 17h7v1H15zM24 17h1v1H24zM26 17h2v1H26zM29,17 h2v1H29zM3 18h1v1H3zM5 18h1v1H5zM8 18h1v1H8zM14 18h2v1H14zM18 18h4v1H18zM27 18h1v1H27zM29,18 h2v1H29zM3 19h1v1H3zM5 19h2v1H5zM10 19h2v1H10zM13 19h3v1H13zM18 19h2v1H18zM22 19h2v1H22zM25 19h1v1H25zM27 19h1v1H27zM2 20h1v1H2zM7 20h2v1H7zM10 20h6v1H10zM17 20h3v1H17zM22 20h1v1H22zM24 20h4v1H24zM5 21h3v1H5zM9 21h4v1H9zM15 21h2v1H15zM19 21h1v1H19zM22 21h3v1H22zM27 21h2v1H27zM3 22h2v1H3zM8 22h2v1H8zM13 22h3v1H13zM18 22h9v1H18zM28 22h2v1H28zM10 23h2v1H10zM14 23h3v1H14zM22 23h1v1H22zM26 23h2v1H26zM29 23h1v1H29zM2 24h7v1H2zM11 24h2v1H11zM14 24h3v1H14zM18 24h2v1H18zM21 24h2v1H21zM24 24h1v1H24zM26 24h1v1H26zM28 24h2v1H28zM2 25h1v1H2zM8 25h1v1H8zM10 25h2v1H10zM14 25h1v1H14zM17 25h2v1H17zM20 25h1v1H20zM22 25h1v1H22zM26 25h1v1H26zM29 25h1v1H29zM2 26h1v1H2zM4 26h3v1H4zM8 26h1v1H8zM11 26h4v1H11zM16 26h2v1H16zM20 26h1v1H20zM22 26h7v1H22zM30,26 h1v1H30zM2 27h1v1H2zM4 27h3v1H4zM8 27h1v1H8zM10 27h1v1H10zM14 27h1v1H14zM16 27h1v1H16zM18 27h4v1H18zM26 27h4v1H26zM2 28h1v1H2zM4 28h3v1H4zM8 28h1v1H8zM10 28h2v1H10zM13 28h1v1H13zM15 28h4v1H15zM20 28h1v1H20zM22 28h1v1H22zM25 28h1v1H25zM27 28h1v1H27zM30,28 h1v1H30zM2 29h1v1H2zM8 29h1v1H8zM10 29h2v1H10zM14 29h1v1H14zM16 29h1v1H16zM18 29h1v1H18zM21 29h2v1H21zM24 29h1v1H24zM26 29h2v1H26zM29 29h1v1H29zM2 30h7v1H2zM11 30h3v1H11zM15 30h1v1H15zM17 30h2v1H17zM20 30h6v1H20zM27 30h1v1H27zM29 30h1v1H29z" shapeRendering="crispEdges"></path></svg>