<svg xmlns="http://www.w3.org/2000/svg" xmlns:xlink="http://www.w3.org/1999/xlink" width="1400" zoomAndPan="magnify" viewBox="0 0 1050 599.999999" height="800" preserveAspectRatio="xMidYMid meet" version="1.0"><defs><g/><clipPath id="e4b4825b6f"><path d="M 332.351562 197.679688 L 380.695312 197.679688 L 380.695312 246.023438 L 332.351562 246.023438 Z M 332.351562 197.679688 " clip-rule="nonzero"/></clipPath><clipPath id="07330cec3d"><path d="M 332.351562 221.851562 C 332.351562 235.203125 343.171875 246.023438 356.523438 246.023438 C 369.871094 246.023438 380.695312 235.203125 380.695312 221.851562 C 380.695312 208.503906 369.871094 197.679688 356.523438 197.679688 C 343.171875 197.679688 332.351562 208.503906 332.351562 221.851562 Z M 332.351562 221.851562 " clip-rule="nonzero"/></clipPath><clipPath id="bafea7c7b9"><path d="M 0.351562 0.679688 L 48.695312 0.679688 L 48.695312 49.023438 L 0.351562 49.023438 Z M 0.351562 0.679688 " clip-rule="nonzero"/></clipPath><clipPath id="2877607538"><path d="M 0.351562 24.851562 C 0.351562 38.203125 11.171875 49.023438 24.523438 49.023438 C 37.871094 49.023438 48.695312 38.203125 48.695312 24.851562 C 48.695312 11.503906 37.871094 0.679688 24.523438 0.679688 C 11.171875 0.679688 0.351562 11.503906 0.351562 24.851562 Z M 0.351562 24.851562 " clip-rule="nonzero"/></clipPath><clipPath id="c9b900b705"><rect x="0" width="49" y="0" height="50"/></clipPath><clipPath id="49e5262a94"><path d="M 549.078125 157.671875 L 597.421875 157.671875 L 597.421875 206.015625 L 549.078125 206.015625 Z M 549.078125 157.671875 " clip-rule="nonzero"/></clipPath><clipPath id="4a67ea27c9"><path d="M 549.078125 181.84375 C 549.078125 195.195312 559.902344 206.015625 573.25 206.015625 C 586.601562 206.015625 597.421875 195.195312 597.421875 181.84375 C 597.421875 168.496094 586.601562 157.671875 573.25 157.671875 C 559.902344 157.671875 549.078125 168.496094 549.078125 181.84375 Z M 549.078125 181.84375 " clip-rule="nonzero"/></clipPath><clipPath id="00a53e45f6"><path d="M 0.078125 0.671875 L 48.421875 0.671875 L 48.421875 49.015625 L 0.078125 49.015625 Z M 0.078125 0.671875 " clip-rule="nonzero"/></clipPath><clipPath id="6e216de06e"><path d="M 0.078125 24.84375 C 0.078125 38.195312 10.902344 49.015625 24.25 49.015625 C 37.601562 49.015625 48.421875 38.195312 48.421875 24.84375 C 48.421875 11.496094 37.601562 0.671875 24.25 0.671875 C 10.902344 0.671875 0.078125 11.496094 0.078125 24.84375 Z M 0.078125 24.84375 " clip-rule="nonzero"/></clipPath><clipPath id="76a2dca4c2"><rect x="0" width="49" y="0" height="50"/></clipPath><clipPath id="f5d4b328f2"><path d="M 801.28125 158.550781 L 849.621094 158.550781 L 849.621094 206.894531 L 801.28125 206.894531 Z M 801.28125 158.550781 " clip-rule="nonzero"/></clipPath><clipPath id="2719892077"><path d="M 801.28125 182.722656 C 801.28125 196.070312 812.101562 206.894531 825.453125 206.894531 C 838.800781 206.894531 849.625 196.070312 849.625 182.722656 C 849.625 169.371094 838.800781 158.550781 825.453125 158.550781 C 812.101562 158.550781 801.28125 169.371094 801.28125 182.722656 Z M 801.28125 182.722656 " clip-rule="nonzero"/></clipPath><clipPath id="d802bd4806"><path d="M 0.28125 0.550781 L 48.621094 0.550781 L 48.621094 48.894531 L 0.28125 48.894531 Z M 0.28125 0.550781 " clip-rule="nonzero"/></clipPath><clipPath id="256cb4ee4a"><path d="M 0.28125 24.722656 C 0.28125 38.070312 11.101562 48.894531 24.453125 48.894531 C 37.800781 48.894531 48.625 38.070312 48.625 24.722656 C 48.625 11.371094 37.800781 0.550781 24.453125 0.550781 C 11.101562 0.550781 0.28125 11.371094 0.28125 24.722656 Z M 0.28125 24.722656 " clip-rule="nonzero"/></clipPath><clipPath id="0b265f2571"><rect x="0" width="49" y="0" height="49"/></clipPath><clipPath id="a2f06b610b"><path d="M 549.078125 261.667969 L 597.421875 261.667969 L 597.421875 310.007812 L 549.078125 310.007812 Z M 549.078125 261.667969 " clip-rule="nonzero"/></clipPath><clipPath id="d2039a2ce7"><path d="M 549.078125 285.835938 C 549.078125 299.1875 559.902344 310.007812 573.25 310.007812 C 586.601562 310.007812 597.421875 299.1875 597.421875 285.835938 C 597.421875 272.488281 586.601562 261.667969 573.25 261.667969 C 559.902344 261.667969 549.078125 272.488281 549.078125 285.835938 Z M 549.078125 285.835938 " clip-rule="nonzero"/></clipPath><clipPath id="9870ca4338"><path d="M 0.078125 0.667969 L 48.421875 0.667969 L 48.421875 49.007812 L 0.078125 49.007812 Z M 0.078125 0.667969 " clip-rule="nonzero"/></clipPath><clipPath id="84d4fada7b"><path d="M 0.078125 24.835938 C 0.078125 38.1875 10.902344 49.007812 24.25 49.007812 C 37.601562 49.007812 48.421875 38.1875 48.421875 24.835938 C 48.421875 11.488281 37.601562 0.667969 24.25 0.667969 C 10.902344 0.667969 0.078125 11.488281 0.078125 24.835938 Z M 0.078125 24.835938 " clip-rule="nonzero"/></clipPath><clipPath id="38fdb9ff72"><rect x="0" width="49" y="0" height="50"/></clipPath><clipPath id="934991ed70"><path d="M 801.28125 269.675781 L 849.621094 269.675781 L 849.621094 318.019531 L 801.28125 318.019531 Z M 801.28125 269.675781 " clip-rule="nonzero"/></clipPath><clipPath id="4d6192c66b"><path d="M 801.28125 293.847656 C 801.28125 307.199219 812.101562 318.019531 825.453125 318.019531 C 838.800781 318.019531 849.625 307.199219 849.625 293.847656 C 849.625 280.5 838.800781 269.675781 825.453125 269.675781 C 812.101562 269.675781 801.28125 280.5 801.28125 293.847656 Z M 801.28125 293.847656 " clip-rule="nonzero"/></clipPath><clipPath id="14cb472555"><path d="M 0.28125 0.675781 L 48.621094 0.675781 L 48.621094 49.019531 L 0.28125 49.019531 Z M 0.28125 0.675781 " clip-rule="nonzero"/></clipPath><clipPath id="58853afe4e"><path d="M 0.28125 24.847656 C 0.28125 38.199219 11.101562 49.019531 24.453125 49.019531 C 37.800781 49.019531 48.625 38.199219 48.625 24.847656 C 48.625 11.5 37.800781 0.675781 24.453125 0.675781 C 11.101562 0.675781 0.28125 11.5 0.28125 24.847656 Z M 0.28125 24.847656 " clip-rule="nonzero"/></clipPath><clipPath id="eecd8c2afe"><rect x="0" width="49" y="0" height="50"/></clipPath><clipPath id="3d86ca0355"><rect x="0" width="239" y="0" height="19"/></clipPath><clipPath id="bba925831b"><path d="M 0.359375 4 L 11 4 L 11 15 L 0.359375 15 Z M 0.359375 4 " clip-rule="nonzero"/></clipPath><clipPath id="be75b6a10d"><rect x="0" width="65" y="0" height="19"/></clipPath><clipPath id="8e4f28be7f"><path d="M 0.441406 4 L 11 4 L 11 15 L 0.441406 15 Z M 0.441406 4 " clip-rule="nonzero"/></clipPath><clipPath id="374efc9d18"><rect x="0" width="67" y="0" height="19"/></clipPath><clipPath id="e6db3e8063"><rect x="0" width="62" y="0" height="19"/></clipPath><clipPath id="4c619681df"><rect x="0" width="68" y="0" height="19"/></clipPath></defs><rect x="-105" width="1260" fill="#ffffff" y="-60" height="719.999999" fill-opacity="1"/><rect x="-105" width="1260" fill="#ffffff" y="-60" height="719.999999" fill-opacity="1"/><path stroke-linecap="butt" transform="matrix(0.75, 0, 0, 0.75, 0.000000525, 34.809159)" fill="none" stroke-linejoin="miter" d="M -0.0000007 0.499246 L 1019.062543 0.499246 " stroke="#ff6861" stroke-width="1" stroke-opacity="1" stroke-miterlimit="4"/><path stroke-linecap="butt" transform="matrix(0.75, -0.000000000000000093, 0.000000000000000093, 0.75, 61.155087, 408.152691)" fill="none" stroke-linejoin="miter" d="M 0.00155105 0.499538 L 1259.730771 0.499538 " stroke="#ff6861" stroke-width="1" stroke-opacity="1" stroke-miterlimit="4"/><g clip-path="url(#e4b4825b6f)"><g clip-path="url(#07330cec3d)"><g transform="matrix(1, 0, 0, 1, 332, 197)"><g clip-path="url(#c9b900b705)"><g clip-path="url(#bafea7c7b9)"><g clip-path="url(#2877607538)"><path fill="#f87872" d="M 0.351562 49.023438 L 0.351562 0.679688 L 48.695312 0.679688 L 48.695312 49.023438 Z M 0.351562 49.023438 " fill-opacity="1" fill-rule="nonzero"/></g></g></g></g></g></g><g clip-path="url(#49e5262a94)"><g clip-path="url(#4a67ea27c9)"><g transform="matrix(1, 0, 0, 1, 549, 157)"><g clip-path="url(#76a2dca4c2)"><g clip-path="url(#00a53e45f6)"><g clip-path="url(#6e216de06e)"><path fill="#ffb3a8" d="M 0.078125 49.015625 L 0.078125 0.671875 L 48.421875 0.671875 L 48.421875 49.015625 Z M 0.078125 49.015625 " fill-opacity="1" fill-rule="nonzero"/></g></g></g></g></g></g><g clip-path="url(#f5d4b328f2)"><g clip-path="url(#2719892077)"><g transform="matrix(1, 0, 0, 1, 801, 158)"><g clip-path="url(#0b265f2571)"><g clip-path="url(#d802bd4806)"><g clip-path="url(#256cb4ee4a)"><path fill="#ceedff" d="M 0.28125 48.894531 L 0.28125 0.550781 L 48.621094 0.550781 L 48.621094 48.894531 Z M 0.28125 48.894531 " fill-opacity="1" fill-rule="nonzero"/></g></g></g></g></g></g><g clip-path="url(#a2f06b610b)"><g clip-path="url(#d2039a2ce7)"><g transform="matrix(1, 0, 0, 1, 549, 261)"><g clip-path="url(#38fdb9ff72)"><g clip-path="url(#9870ca4338)"><g clip-path="url(#84d4fada7b)"><path fill="#002454" d="M 0.078125 49.007812 L 0.078125 0.667969 L 48.421875 0.667969 L 48.421875 49.007812 Z M 0.078125 49.007812 " fill-opacity="1" fill-rule="nonzero"/></g></g></g></g></g></g><g clip-path="url(#934991ed70)"><g clip-path="url(#4d6192c66b)"><g transform="matrix(1, 0, 0, 1, 801, 269)"><g clip-path="url(#eecd8c2afe)"><g clip-path="url(#14cb472555)"><g clip-path="url(#58853afe4e)"><path fill="#f5f2ed" d="M 0.28125 49.019531 L 0.28125 0.675781 L 48.621094 0.675781 L 48.621094 49.019531 Z M 0.28125 49.019531 " fill-opacity="1" fill-rule="nonzero"/></g></g></g></g></g></g><g transform="matrix(1, 0, 0, 1, 792, 24)"><g clip-path="url(#3d86ca0355)"><g fill="#ff6861" fill-opacity="1"><g transform="translate(1.056654, 14.888255)"><g><path d="M 6.0625 0.09375 C 5.0625 0.09375 4.15625 -0.128906 3.34375 -0.578125 C 2.539062 -1.023438 1.90625 -1.640625 1.4375 -2.421875 C 0.976562 -3.210938 0.75 -4.097656 0.75 -5.078125 C 0.75 -6.054688 0.976562 -6.9375 1.4375 -7.71875 C 1.90625 -8.507812 2.546875 -9.128906 3.359375 -9.578125 C 4.171875 -10.023438 5.078125 -10.25 6.078125 -10.25 C 6.835938 -10.25 7.535156 -10.125 8.171875 -9.875 C 8.804688 -9.625 9.347656 -9.253906 9.796875 -8.765625 L 9.109375 -8.078125 C 8.316406 -8.890625 7.316406 -9.296875 6.109375 -9.296875 C 5.304688 -9.296875 4.578125 -9.109375 3.921875 -8.734375 C 3.265625 -8.367188 2.75 -7.863281 2.375 -7.21875 C 2 -6.582031 1.8125 -5.867188 1.8125 -5.078125 C 1.8125 -4.285156 2 -3.566406 2.375 -2.921875 C 2.75 -2.285156 3.265625 -1.785156 3.921875 -1.421875 C 4.578125 -1.054688 5.304688 -0.875 6.109375 -0.875 C 7.328125 -0.875 8.328125 -1.28125 9.109375 -2.09375 L 9.796875 -1.40625 C 9.347656 -0.925781 8.800781 -0.554688 8.15625 -0.296875 C 7.519531 -0.0351562 6.820312 0.09375 6.0625 0.09375 Z M 6.0625 0.09375 "/></g></g></g><g fill="#ff6861" fill-opacity="1"><g transform="translate(11.484146, 14.888255)"><g><path d="M 6.09375 0.09375 C 5.09375 0.09375 4.179688 -0.128906 3.359375 -0.578125 C 2.546875 -1.035156 1.90625 -1.65625 1.4375 -2.4375 C 0.976562 -3.21875 0.75 -4.097656 0.75 -5.078125 C 0.75 -6.054688 0.976562 -6.9375 1.4375 -7.71875 C 1.90625 -8.5 2.546875 -9.113281 3.359375 -9.5625 C 4.179688 -10.019531 5.09375 -10.25 6.09375 -10.25 C 7.101562 -10.25 8.007812 -10.023438 8.8125 -9.578125 C 9.625 -9.128906 10.257812 -8.507812 10.71875 -7.71875 C 11.1875 -6.9375 11.421875 -6.054688 11.421875 -5.078125 C 11.421875 -4.097656 11.1875 -3.210938 10.71875 -2.421875 C 10.257812 -1.640625 9.625 -1.023438 8.8125 -0.578125 C 8.007812 -0.128906 7.101562 0.09375 6.09375 0.09375 Z M 6.09375 -0.875 C 6.894531 -0.875 7.617188 -1.050781 8.265625 -1.40625 C 8.921875 -1.769531 9.429688 -2.273438 9.796875 -2.921875 C 10.160156 -3.566406 10.34375 -4.285156 10.34375 -5.078125 C 10.34375 -5.867188 10.160156 -6.585938 9.796875 -7.234375 C 9.429688 -7.878906 8.921875 -8.382812 8.265625 -8.75 C 7.617188 -9.113281 6.894531 -9.296875 6.09375 -9.296875 C 5.289062 -9.296875 4.5625 -9.113281 3.90625 -8.75 C 3.257812 -8.382812 2.75 -7.878906 2.375 -7.234375 C 2 -6.585938 1.8125 -5.867188 1.8125 -5.078125 C 1.8125 -4.285156 2 -3.566406 2.375 -2.921875 C 2.75 -2.273438 3.257812 -1.769531 3.90625 -1.40625 C 4.5625 -1.050781 5.289062 -0.875 6.09375 -0.875 Z M 6.09375 -0.875 "/></g></g></g><g fill="#ff6861" fill-opacity="1"><g transform="translate(23.65197, 14.888255)"><g><path d="M 1.65625 -10.15625 L 2.734375 -10.15625 L 2.734375 -0.921875 L 8.421875 -0.921875 L 8.421875 0 L 1.65625 0 Z M 1.65625 -10.15625 "/></g></g></g><g fill="#ff6861" fill-opacity="1"><g transform="translate(32.1941, 14.888255)"><g><path d="M 6.09375 0.09375 C 5.09375 0.09375 4.179688 -0.128906 3.359375 -0.578125 C 2.546875 -1.035156 1.90625 -1.65625 1.4375 -2.4375 C 0.976562 -3.21875 0.75 -4.097656 0.75 -5.078125 C 0.75 -6.054688 0.976562 -6.9375 1.4375 -7.71875 C 1.90625 -8.5 2.546875 -9.113281 3.359375 -9.5625 C 4.179688 -10.019531 5.09375 -10.25 6.09375 -10.25 C 7.101562 -10.25 8.007812 -10.023438 8.8125 -9.578125 C 9.625 -9.128906 10.257812 -8.507812 10.71875 -7.71875 C 11.1875 -6.9375 11.421875 -6.054688 11.421875 -5.078125 C 11.421875 -4.097656 11.1875 -3.210938 10.71875 -2.421875 C 10.257812 -1.640625 9.625 -1.023438 8.8125 -0.578125 C 8.007812 -0.128906 7.101562 0.09375 6.09375 0.09375 Z M 6.09375 -0.875 C 6.894531 -0.875 7.617188 -1.050781 8.265625 -1.40625 C 8.921875 -1.769531 9.429688 -2.273438 9.796875 -2.921875 C 10.160156 -3.566406 10.34375 -4.285156 10.34375 -5.078125 C 10.34375 -5.867188 10.160156 -6.585938 9.796875 -7.234375 C 9.429688 -7.878906 8.921875 -8.382812 8.265625 -8.75 C 7.617188 -9.113281 6.894531 -9.296875 6.09375 -9.296875 C 5.289062 -9.296875 4.5625 -9.113281 3.90625 -8.75 C 3.257812 -8.382812 2.75 -7.878906 2.375 -7.234375 C 2 -6.585938 1.8125 -5.867188 1.8125 -5.078125 C 1.8125 -4.285156 2 -3.566406 2.375 -2.921875 C 2.75 -2.273438 3.257812 -1.769531 3.90625 -1.40625 C 4.5625 -1.050781 5.289062 -0.875 6.09375 -0.875 Z M 6.09375 -0.875 "/></g></g></g><g fill="#ff6861" fill-opacity="1"><g transform="translate(44.361925, 14.888255)"><g><path d="M 8.59375 0 L 6.265625 -3.265625 C 6.003906 -3.234375 5.734375 -3.21875 5.453125 -3.21875 L 2.734375 -3.21875 L 2.734375 0 L 1.65625 0 L 1.65625 -10.15625 L 5.453125 -10.15625 C 6.753906 -10.15625 7.769531 -9.84375 8.5 -9.21875 C 9.238281 -8.601562 9.609375 -7.753906 9.609375 -6.671875 C 9.609375 -5.878906 9.40625 -5.207031 9 -4.65625 C 8.601562 -4.113281 8.03125 -3.722656 7.28125 -3.484375 L 9.765625 0 Z M 5.421875 -4.140625 C 6.429688 -4.140625 7.203125 -4.359375 7.734375 -4.796875 C 8.265625 -5.242188 8.53125 -5.867188 8.53125 -6.671875 C 8.53125 -7.492188 8.265625 -8.125 7.734375 -8.5625 C 7.203125 -9.007812 6.429688 -9.234375 5.421875 -9.234375 L 2.734375 -9.234375 L 2.734375 -4.140625 Z M 5.421875 -4.140625 "/></g></g></g><g fill="#ff6861" fill-opacity="1"><g transform="translate(54.847422, 14.888255)"><g><path d="M 1.65625 -10.15625 L 2.734375 -10.15625 L 2.734375 0 L 1.65625 0 Z M 1.65625 -10.15625 "/></g></g></g><g fill="#ff6861" fill-opacity="1"><g transform="translate(59.227258, 14.888255)"><g><path d="M 12.203125 -10.15625 L 12.203125 0 L 11.171875 0 L 11.171875 -8.125 L 7.1875 -1.296875 L 6.671875 -1.296875 L 2.6875 -8.078125 L 2.6875 0 L 1.65625 0 L 1.65625 -10.15625 L 2.546875 -10.15625 L 6.953125 -2.625 L 11.328125 -10.15625 Z M 12.203125 -10.15625 "/></g></g></g><g fill="#ff6861" fill-opacity="1"><g transform="translate(73.077401, 14.888255)"><g><path d="M 8.84375 -0.921875 L 8.84375 0 L 1.65625 0 L 1.65625 -10.15625 L 8.625 -10.15625 L 8.625 -9.234375 L 2.734375 -9.234375 L 2.734375 -5.625 L 7.984375 -5.625 L 7.984375 -4.703125 L 2.734375 -4.703125 L 2.734375 -0.921875 Z M 8.84375 -0.921875 "/></g></g></g><g fill="#ff6861" fill-opacity="1"><g transform="translate(82.77975, 14.888255)"><g><path d="M 3.625 -9.234375 L 0.0625 -9.234375 L 0.0625 -10.15625 L 8.28125 -10.15625 L 8.28125 -9.234375 L 4.703125 -9.234375 L 4.703125 0 L 3.625 0 Z M 3.625 -9.234375 "/></g></g></g><g fill="#ff6861" fill-opacity="1"><g transform="translate(91.104336, 14.888255)"><g><path d="M 8.59375 0 L 6.265625 -3.265625 C 6.003906 -3.234375 5.734375 -3.21875 5.453125 -3.21875 L 2.734375 -3.21875 L 2.734375 0 L 1.65625 0 L 1.65625 -10.15625 L 5.453125 -10.15625 C 6.753906 -10.15625 7.769531 -9.84375 8.5 -9.21875 C 9.238281 -8.601562 9.609375 -7.753906 9.609375 -6.671875 C 9.609375 -5.878906 9.40625 -5.207031 9 -4.65625 C 8.601562 -4.113281 8.03125 -3.722656 7.28125 -3.484375 L 9.765625 0 Z M 5.421875 -4.140625 C 6.429688 -4.140625 7.203125 -4.359375 7.734375 -4.796875 C 8.265625 -5.242188 8.53125 -5.867188 8.53125 -6.671875 C 8.53125 -7.492188 8.265625 -8.125 7.734375 -8.5625 C 7.203125 -9.007812 6.429688 -9.234375 5.421875 -9.234375 L 2.734375 -9.234375 L 2.734375 -4.140625 Z M 5.421875 -4.140625 "/></g></g></g><g fill="#ff6861" fill-opacity="1"><g transform="translate(101.589834, 14.888255)"><g><path d="M 1.65625 -10.15625 L 2.734375 -10.15625 L 2.734375 0 L 1.65625 0 Z M 1.65625 -10.15625 "/></g></g></g><g fill="#ff6861" fill-opacity="1"><g transform="translate(105.96967, 14.888255)"><g><path d="M 8.03125 -2.71875 L 2.359375 -2.71875 L 1.140625 0 L 0.03125 0 L 4.671875 -10.15625 L 5.734375 -10.15625 L 10.375 0 L 9.25 0 Z M 7.640625 -3.578125 L 5.203125 -9.046875 L 2.765625 -3.578125 Z M 7.640625 -3.578125 "/></g></g></g><g fill="#ff6861" fill-opacity="1"><g transform="translate(116.368154, 14.888255)"><g><path d="M 4.421875 -12.21875 L 5.375 -12.21875 L 0.578125 1.453125 L -0.359375 1.453125 Z M 4.421875 -12.21875 "/></g></g></g><g fill="#ff6861" fill-opacity="1"><g transform="translate(121.230133, 14.888255)"><g><path d="M 6.0625 0.171875 C 5.03125 0.171875 4.09375 -0.0507812 3.25 -0.5 C 2.414062 -0.945312 1.757812 -1.570312 1.28125 -2.375 C 0.800781 -3.175781 0.5625 -4.078125 0.5625 -5.078125 C 0.5625 -6.085938 0.800781 -6.988281 1.28125 -7.78125 C 1.757812 -8.582031 2.414062 -9.207031 3.25 -9.65625 C 4.09375 -10.101562 5.035156 -10.328125 6.078125 -10.328125 C 6.960938 -10.328125 7.757812 -10.171875 8.46875 -9.859375 C 9.175781 -9.554688 9.773438 -9.113281 10.265625 -8.53125 L 8.75 -7.140625 C 8.0625 -7.929688 7.210938 -8.328125 6.203125 -8.328125 C 5.566406 -8.328125 5.003906 -8.1875 4.515625 -7.90625 C 4.023438 -7.632812 3.640625 -7.253906 3.359375 -6.765625 C 3.085938 -6.273438 2.953125 -5.710938 2.953125 -5.078125 C 2.953125 -4.453125 3.085938 -3.890625 3.359375 -3.390625 C 3.640625 -2.898438 4.023438 -2.515625 4.515625 -2.234375 C 5.003906 -1.960938 5.566406 -1.828125 6.203125 -1.828125 C 7.210938 -1.828125 8.0625 -2.226562 8.75 -3.03125 L 10.265625 -1.640625 C 9.773438 -1.046875 9.171875 -0.59375 8.453125 -0.28125 C 7.742188 0.0195312 6.945312 0.171875 6.0625 0.171875 Z M 6.0625 0.171875 "/></g></g></g><g fill="#ff6861" fill-opacity="1"><g transform="translate(131.86066, 14.888255)"><g><path d="M 6.125 0.171875 C 5.070312 0.171875 4.117188 -0.0507812 3.265625 -0.5 C 2.421875 -0.957031 1.757812 -1.582031 1.28125 -2.375 C 0.800781 -3.175781 0.5625 -4.078125 0.5625 -5.078125 C 0.5625 -6.078125 0.800781 -6.972656 1.28125 -7.765625 C 1.757812 -8.566406 2.421875 -9.191406 3.265625 -9.640625 C 4.117188 -10.097656 5.070312 -10.328125 6.125 -10.328125 C 7.175781 -10.328125 8.125 -10.097656 8.96875 -9.640625 C 9.8125 -9.191406 10.472656 -8.566406 10.953125 -7.765625 C 11.441406 -6.972656 11.6875 -6.078125 11.6875 -5.078125 C 11.6875 -4.078125 11.441406 -3.175781 10.953125 -2.375 C 10.472656 -1.582031 9.8125 -0.957031 8.96875 -0.5 C 8.125 -0.0507812 7.175781 0.171875 6.125 0.171875 Z M 6.125 -1.828125 C 6.726562 -1.828125 7.269531 -1.960938 7.75 -2.234375 C 8.238281 -2.515625 8.617188 -2.898438 8.890625 -3.390625 C 9.160156 -3.890625 9.296875 -4.453125 9.296875 -5.078125 C 9.296875 -5.710938 9.160156 -6.273438 8.890625 -6.765625 C 8.617188 -7.253906 8.238281 -7.632812 7.75 -7.90625 C 7.269531 -8.1875 6.726562 -8.328125 6.125 -8.328125 C 5.519531 -8.328125 4.976562 -8.1875 4.5 -7.90625 C 4.019531 -7.632812 3.640625 -7.253906 3.359375 -6.765625 C 3.085938 -6.273438 2.953125 -5.710938 2.953125 -5.078125 C 2.953125 -4.453125 3.085938 -3.890625 3.359375 -3.390625 C 3.640625 -2.898438 4.019531 -2.515625 4.5 -2.234375 C 4.976562 -1.960938 5.519531 -1.828125 6.125 -1.828125 Z M 6.125 -1.828125 "/></g></g></g><g fill="#ff6861" fill-opacity="1"><g transform="translate(144.100999, 14.888255)"><g><path d="M 1.203125 -10.15625 L 3.5625 -10.15625 L 3.5625 -1.921875 L 8.65625 -1.921875 L 8.65625 0 L 1.203125 0 Z M 1.203125 -10.15625 "/></g></g></g><g fill="#ff6861" fill-opacity="1"><g transform="translate(152.860671, 14.888255)"><g><path d="M 6.125 0.171875 C 5.070312 0.171875 4.117188 -0.0507812 3.265625 -0.5 C 2.421875 -0.957031 1.757812 -1.582031 1.28125 -2.375 C 0.800781 -3.175781 0.5625 -4.078125 0.5625 -5.078125 C 0.5625 -6.078125 0.800781 -6.972656 1.28125 -7.765625 C 1.757812 -8.566406 2.421875 -9.191406 3.265625 -9.640625 C 4.117188 -10.097656 5.070312 -10.328125 6.125 -10.328125 C 7.175781 -10.328125 8.125 -10.097656 8.96875 -9.640625 C 9.8125 -9.191406 10.472656 -8.566406 10.953125 -7.765625 C 11.441406 -6.972656 11.6875 -6.078125 11.6875 -5.078125 C 11.6875 -4.078125 11.441406 -3.175781 10.953125 -2.375 C 10.472656 -1.582031 9.8125 -0.957031 8.96875 -0.5 C 8.125 -0.0507812 7.175781 0.171875 6.125 0.171875 Z M 6.125 -1.828125 C 6.726562 -1.828125 7.269531 -1.960938 7.75 -2.234375 C 8.238281 -2.515625 8.617188 -2.898438 8.890625 -3.390625 C 9.160156 -3.890625 9.296875 -4.453125 9.296875 -5.078125 C 9.296875 -5.710938 9.160156 -6.273438 8.890625 -6.765625 C 8.617188 -7.253906 8.238281 -7.632812 7.75 -7.90625 C 7.269531 -8.1875 6.726562 -8.328125 6.125 -8.328125 C 5.519531 -8.328125 4.976562 -8.1875 4.5 -7.90625 C 4.019531 -7.632812 3.640625 -7.253906 3.359375 -6.765625 C 3.085938 -6.273438 2.953125 -5.710938 2.953125 -5.078125 C 2.953125 -4.453125 3.085938 -3.890625 3.359375 -3.390625 C 3.640625 -2.898438 4.019531 -2.515625 4.5 -2.234375 C 4.976562 -1.960938 5.519531 -1.828125 6.125 -1.828125 Z M 6.125 -1.828125 "/></g></g></g><g fill="#ff6861" fill-opacity="1"><g transform="translate(165.10101, 14.888255)"><g><path d="M 7.671875 0 L 5.71875 -2.828125 L 3.5625 -2.828125 L 3.5625 0 L 1.203125 0 L 1.203125 -10.15625 L 5.609375 -10.15625 C 6.503906 -10.15625 7.28125 -10.003906 7.9375 -9.703125 C 8.601562 -9.410156 9.113281 -8.988281 9.46875 -8.4375 C 9.832031 -7.882812 10.015625 -7.226562 10.015625 -6.46875 C 10.015625 -5.71875 9.832031 -5.066406 9.46875 -4.515625 C 9.101562 -3.972656 8.585938 -3.554688 7.921875 -3.265625 L 10.203125 0 Z M 7.640625 -6.46875 C 7.640625 -7.039062 7.453125 -7.476562 7.078125 -7.78125 C 6.710938 -8.09375 6.175781 -8.25 5.46875 -8.25 L 3.5625 -8.25 L 3.5625 -4.703125 L 5.46875 -4.703125 C 6.175781 -4.703125 6.710938 -4.851562 7.078125 -5.15625 C 7.453125 -5.46875 7.640625 -5.90625 7.640625 -6.46875 Z M 7.640625 -6.46875 "/></g></g></g><g fill="#ff6861" fill-opacity="1"><g transform="translate(175.760544, 14.888255)"><g><path d="M 1.203125 -10.15625 L 3.5625 -10.15625 L 3.5625 0 L 1.203125 0 Z M 1.203125 -10.15625 "/></g></g></g><g fill="#ff6861" fill-opacity="1"><g transform="translate(180.51745, 14.888255)"><g><path d="M 10.453125 0 L 10.4375 -6.09375 L 7.453125 -1.078125 L 6.390625 -1.078125 L 3.40625 -5.96875 L 3.40625 0 L 1.203125 0 L 1.203125 -10.15625 L 3.15625 -10.15625 L 6.953125 -3.84375 L 10.703125 -10.15625 L 12.625 -10.15625 L 12.65625 0 Z M 10.453125 0 "/></g></g></g><g fill="#ff6861" fill-opacity="1"><g transform="translate(194.367593, 14.888255)"><g><path d="M 9.078125 -1.890625 L 9.078125 0 L 1.203125 0 L 1.203125 -10.15625 L 8.890625 -10.15625 L 8.890625 -8.28125 L 3.546875 -8.28125 L 3.546875 -6.0625 L 8.265625 -6.0625 L 8.265625 -4.234375 L 3.546875 -4.234375 L 3.546875 -1.890625 Z M 9.078125 -1.890625 "/></g></g></g><g fill="#ff6861" fill-opacity="1"><g transform="translate(204.09895, 14.888255)"><g><path d="M 3.3125 -8.25 L 0.0625 -8.25 L 0.0625 -10.15625 L 8.90625 -10.15625 L 8.90625 -8.25 L 5.65625 -8.25 L 5.65625 0 L 3.3125 0 Z M 3.3125 -8.25 "/></g></g></g><g fill="#ff6861" fill-opacity="1"><g transform="translate(213.061656, 14.888255)"><g><path d="M 7.671875 0 L 5.71875 -2.828125 L 3.5625 -2.828125 L 3.5625 0 L 1.203125 0 L 1.203125 -10.15625 L 5.609375 -10.15625 C 6.503906 -10.15625 7.28125 -10.003906 7.9375 -9.703125 C 8.601562 -9.410156 9.113281 -8.988281 9.46875 -8.4375 C 9.832031 -7.882812 10.015625 -7.226562 10.015625 -6.46875 C 10.015625 -5.71875 9.832031 -5.066406 9.46875 -4.515625 C 9.101562 -3.972656 8.585938 -3.554688 7.921875 -3.265625 L 10.203125 0 Z M 7.640625 -6.46875 C 7.640625 -7.039062 7.453125 -7.476562 7.078125 -7.78125 C 6.710938 -8.09375 6.175781 -8.25 5.46875 -8.25 L 3.5625 -8.25 L 3.5625 -4.703125 L 5.46875 -4.703125 C 6.175781 -4.703125 6.710938 -4.851562 7.078125 -5.15625 C 7.453125 -5.46875 7.640625 -5.90625 7.640625 -6.46875 Z M 7.640625 -6.46875 "/></g></g></g><g fill="#ff6861" fill-opacity="1"><g transform="translate(223.72119, 14.888255)"><g><path d="M 6.078125 -3.59375 L 6.078125 0 L 3.734375 0 L 3.734375 -3.625 L -0.203125 -10.15625 L 2.296875 -10.15625 L 5.015625 -5.640625 L 7.71875 -10.15625 L 10.03125 -10.15625 Z M 6.078125 -3.59375 "/></g></g></g><g fill="#ff6861" fill-opacity="1"><g transform="translate(233.530445, 14.888255)"><g/></g></g></g></g><g transform="matrix(1, 0, 0, 1, 405, 211)"><g clip-path="url(#be75b6a10d)"><g clip-path="url(#bba925831b)"><g fill="#002454" fill-opacity="1"><g transform="translate(0.394569, 14.383597)"><g><path d="M 7.515625 -6.609375 L 7.140625 -3.5625 L 9.203125 -3.5625 L 9.203125 -2.765625 L 7.046875 -2.765625 L 6.703125 0 L 5.921875 0 L 6.25 -2.765625 L 3.28125 -2.765625 L 2.9375 0 L 2.140625 0 L 2.484375 -2.765625 L 0.421875 -2.765625 L 0.421875 -3.5625 L 2.578125 -3.5625 L 2.96875 -6.609375 L 0.890625 -6.609375 L 0.890625 -7.40625 L 3.0625 -7.40625 L 3.390625 -10.15625 L 4.1875 -10.15625 L 3.84375 -7.40625 L 6.84375 -7.40625 L 7.171875 -10.15625 L 7.953125 -10.15625 L 7.625 -7.40625 L 9.671875 -7.40625 L 9.671875 -6.609375 Z M 6.734375 -6.609375 L 3.765625 -6.609375 L 3.375 -3.5625 L 6.359375 -3.5625 Z M 6.734375 -6.609375 "/></g></g></g></g><g fill="#002454" fill-opacity="1"><g transform="translate(10.488497, 14.383597)"><g><path d="M 2.734375 -9.234375 L 2.734375 -5.234375 L 7.984375 -5.234375 L 7.984375 -4.3125 L 2.734375 -4.3125 L 2.734375 0 L 1.65625 0 L 1.65625 -10.15625 L 8.625 -10.15625 L 8.625 -9.234375 Z M 2.734375 -9.234375 "/></g></g></g><g fill="#002454" fill-opacity="1"><g transform="translate(19.668747, 14.383597)"><g><path d="M 6.578125 -5.328125 C 7.210938 -5.117188 7.703125 -4.800781 8.046875 -4.375 C 8.390625 -3.945312 8.5625 -3.429688 8.5625 -2.828125 C 8.5625 -2.234375 8.398438 -1.71875 8.078125 -1.28125 C 7.765625 -0.84375 7.3125 -0.503906 6.71875 -0.265625 C 6.125 -0.0234375 5.421875 0.09375 4.609375 0.09375 C 3.390625 0.09375 2.429688 -0.164062 1.734375 -0.6875 C 1.046875 -1.21875 0.703125 -1.929688 0.703125 -2.828125 C 0.703125 -3.441406 0.867188 -3.957031 1.203125 -4.375 C 1.535156 -4.800781 2.019531 -5.117188 2.65625 -5.328125 C 2.132812 -5.523438 1.738281 -5.816406 1.46875 -6.203125 C 1.195312 -6.585938 1.0625 -7.039062 1.0625 -7.5625 C 1.0625 -8.382812 1.378906 -9.035156 2.015625 -9.515625 C 2.660156 -10.003906 3.523438 -10.25 4.609375 -10.25 C 5.328125 -10.25 5.953125 -10.140625 6.484375 -9.921875 C 7.023438 -9.703125 7.445312 -9.390625 7.75 -8.984375 C 8.050781 -8.578125 8.203125 -8.101562 8.203125 -7.5625 C 8.203125 -7.039062 8.0625 -6.585938 7.78125 -6.203125 C 7.5 -5.816406 7.097656 -5.523438 6.578125 -5.328125 Z M 2.109375 -7.53125 C 2.109375 -6.96875 2.328125 -6.519531 2.765625 -6.1875 C 3.210938 -5.863281 3.828125 -5.703125 4.609375 -5.703125 C 5.398438 -5.703125 6.019531 -5.863281 6.46875 -6.1875 C 6.914062 -6.519531 7.140625 -6.960938 7.140625 -7.515625 C 7.140625 -8.085938 6.910156 -8.535156 6.453125 -8.859375 C 5.992188 -9.191406 5.378906 -9.359375 4.609375 -9.359375 C 3.835938 -9.359375 3.226562 -9.191406 2.78125 -8.859375 C 2.332031 -8.535156 2.109375 -8.09375 2.109375 -7.53125 Z M 4.609375 -0.796875 C 5.515625 -0.796875 6.21875 -0.976562 6.71875 -1.34375 C 7.226562 -1.71875 7.484375 -2.21875 7.484375 -2.84375 C 7.484375 -3.46875 7.226562 -3.960938 6.71875 -4.328125 C 6.21875 -4.691406 5.515625 -4.875 4.609375 -4.875 C 3.722656 -4.875 3.023438 -4.691406 2.515625 -4.328125 C 2.003906 -3.960938 1.75 -3.46875 1.75 -2.84375 C 1.75 -2.207031 2 -1.707031 2.5 -1.34375 C 3.007812 -0.976562 3.710938 -0.796875 4.609375 -0.796875 Z M 4.609375 -0.796875 "/></g></g></g><g fill="#002454" fill-opacity="1"><g transform="translate(28.921511, 14.383597)"><g><path d="M 7.921875 -10.15625 L 7.921875 -9.421875 L 3.671875 0 L 2.546875 0 L 6.71875 -9.234375 L 1.5 -9.234375 L 1.5 -7.328125 L 0.46875 -7.328125 L 0.46875 -10.15625 Z M 7.921875 -10.15625 "/></g></g></g><g fill="#002454" fill-opacity="1"><g transform="translate(37.46364, 14.383597)"><g><path d="M 6.578125 -5.328125 C 7.210938 -5.117188 7.703125 -4.800781 8.046875 -4.375 C 8.390625 -3.945312 8.5625 -3.429688 8.5625 -2.828125 C 8.5625 -2.234375 8.398438 -1.71875 8.078125 -1.28125 C 7.765625 -0.84375 7.3125 -0.503906 6.71875 -0.265625 C 6.125 -0.0234375 5.421875 0.09375 4.609375 0.09375 C 3.390625 0.09375 2.429688 -0.164062 1.734375 -0.6875 C 1.046875 -1.21875 0.703125 -1.929688 0.703125 -2.828125 C 0.703125 -3.441406 0.867188 -3.957031 1.203125 -4.375 C 1.535156 -4.800781 2.019531 -5.117188 2.65625 -5.328125 C 2.132812 -5.523438 1.738281 -5.816406 1.46875 -6.203125 C 1.195312 -6.585938 1.0625 -7.039062 1.0625 -7.5625 C 1.0625 -8.382812 1.378906 -9.035156 2.015625 -9.515625 C 2.660156 -10.003906 3.523438 -10.25 4.609375 -10.25 C 5.328125 -10.25 5.953125 -10.140625 6.484375 -9.921875 C 7.023438 -9.703125 7.445312 -9.390625 7.75 -8.984375 C 8.050781 -8.578125 8.203125 -8.101562 8.203125 -7.5625 C 8.203125 -7.039062 8.0625 -6.585938 7.78125 -6.203125 C 7.5 -5.816406 7.097656 -5.523438 6.578125 -5.328125 Z M 2.109375 -7.53125 C 2.109375 -6.96875 2.328125 -6.519531 2.765625 -6.1875 C 3.210938 -5.863281 3.828125 -5.703125 4.609375 -5.703125 C 5.398438 -5.703125 6.019531 -5.863281 6.46875 -6.1875 C 6.914062 -6.519531 7.140625 -6.960938 7.140625 -7.515625 C 7.140625 -8.085938 6.910156 -8.535156 6.453125 -8.859375 C 5.992188 -9.191406 5.378906 -9.359375 4.609375 -9.359375 C 3.835938 -9.359375 3.226562 -9.191406 2.78125 -8.859375 C 2.332031 -8.535156 2.109375 -8.09375 2.109375 -7.53125 Z M 4.609375 -0.796875 C 5.515625 -0.796875 6.21875 -0.976562 6.71875 -1.34375 C 7.226562 -1.71875 7.484375 -2.21875 7.484375 -2.84375 C 7.484375 -3.46875 7.226562 -3.960938 6.71875 -4.328125 C 6.21875 -4.691406 5.515625 -4.875 4.609375 -4.875 C 3.722656 -4.875 3.023438 -4.691406 2.515625 -4.328125 C 2.003906 -3.960938 1.75 -3.46875 1.75 -2.84375 C 1.75 -2.207031 2 -1.707031 2.5 -1.34375 C 3.007812 -0.976562 3.710938 -0.796875 4.609375 -0.796875 Z M 4.609375 -0.796875 "/></g></g></g><g fill="#002454" fill-opacity="1"><g transform="translate(46.716404, 14.383597)"><g><path d="M 7.921875 -10.15625 L 7.921875 -9.421875 L 3.671875 0 L 2.546875 0 L 6.71875 -9.234375 L 1.5 -9.234375 L 1.5 -7.328125 L 0.46875 -7.328125 L 0.46875 -10.15625 Z M 7.921875 -10.15625 "/></g></g></g><g fill="#002454" fill-opacity="1"><g transform="translate(55.258534, 14.383597)"><g><path d="M 7.6875 -0.921875 L 7.6875 0 L 0.5625 0 L 0.5625 -0.734375 L 4.796875 -4.875 C 5.328125 -5.394531 5.6875 -5.847656 5.875 -6.234375 C 6.0625 -6.617188 6.15625 -7.003906 6.15625 -7.390625 C 6.15625 -7.984375 5.945312 -8.445312 5.53125 -8.78125 C 5.125 -9.125 4.539062 -9.296875 3.78125 -9.296875 C 2.582031 -9.296875 1.65625 -8.914062 1 -8.15625 L 0.265625 -8.796875 C 0.660156 -9.265625 1.164062 -9.625 1.78125 -9.875 C 2.394531 -10.125 3.085938 -10.25 3.859375 -10.25 C 4.898438 -10.25 5.722656 -10.003906 6.328125 -9.515625 C 6.929688 -9.023438 7.234375 -8.351562 7.234375 -7.5 C 7.234375 -6.976562 7.113281 -6.472656 6.875 -5.984375 C 6.644531 -5.503906 6.207031 -4.953125 5.5625 -4.328125 L 2.109375 -0.921875 Z M 7.6875 -0.921875 "/></g></g></g></g></g><g fill="#002454" fill-opacity="1"><g transform="translate(927.154305, 394.355511)"><g><path d="M 4.484375 -10.15625 L 4.484375 0 L 2.140625 0 L 2.140625 -8.28125 L 0.109375 -8.28125 L 0.109375 -10.15625 Z M 4.484375 -10.15625 "/></g></g></g><g fill="#002454" fill-opacity="1"><g transform="translate(932.8414, 394.355511)"><g><path d="M 4.921875 0.171875 C 4.078125 0.171875 3.328125 -0.0351562 2.671875 -0.453125 C 2.015625 -0.867188 1.5 -1.46875 1.125 -2.25 C 0.75 -3.039062 0.5625 -3.984375 0.5625 -5.078125 C 0.5625 -6.171875 0.75 -7.113281 1.125 -7.90625 C 1.5 -8.695312 2.015625 -9.296875 2.671875 -9.703125 C 3.328125 -10.117188 4.078125 -10.328125 4.921875 -10.328125 C 5.765625 -10.328125 6.515625 -10.117188 7.171875 -9.703125 C 7.828125 -9.296875 8.34375 -8.695312 8.71875 -7.90625 C 9.09375 -7.113281 9.28125 -6.171875 9.28125 -5.078125 C 9.28125 -3.984375 9.09375 -3.039062 8.71875 -2.25 C 8.34375 -1.46875 7.828125 -0.867188 7.171875 -0.453125 C 6.515625 -0.0351562 5.765625 0.171875 4.921875 0.171875 Z M 4.921875 -1.8125 C 5.535156 -1.8125 6.019531 -2.078125 6.375 -2.609375 C 6.726562 -3.140625 6.90625 -3.960938 6.90625 -5.078125 C 6.90625 -6.191406 6.726562 -7.015625 6.375 -7.546875 C 6.019531 -8.078125 5.535156 -8.34375 4.921875 -8.34375 C 4.304688 -8.34375 3.820312 -8.078125 3.46875 -7.546875 C 3.125 -7.015625 2.953125 -6.191406 2.953125 -5.078125 C 2.953125 -3.960938 3.125 -3.140625 3.46875 -2.609375 C 3.820312 -2.078125 4.304688 -1.8125 4.921875 -1.8125 Z M 4.921875 -1.8125 "/></g></g></g><g fill="#002454" fill-opacity="1"><g transform="translate(942.692257, 394.355511)"><g><path d="M 2.921875 -4.671875 C 2.171875 -4.671875 1.5625 -4.925781 1.09375 -5.4375 C 0.625 -5.945312 0.390625 -6.625 0.390625 -7.46875 C 0.390625 -8.320312 0.625 -9.003906 1.09375 -9.515625 C 1.5625 -10.023438 2.171875 -10.28125 2.921875 -10.28125 C 3.660156 -10.28125 4.257812 -10.023438 4.71875 -9.515625 C 5.1875 -9.003906 5.421875 -8.320312 5.421875 -7.46875 C 5.421875 -6.625 5.1875 -5.945312 4.71875 -5.4375 C 4.257812 -4.925781 3.660156 -4.671875 2.921875 -4.671875 Z M 8.96875 -10.15625 L 10.703125 -10.15625 L 3.765625 0 L 2.03125 0 Z M 2.921875 -5.859375 C 3.242188 -5.859375 3.5 -5.992188 3.6875 -6.265625 C 3.882812 -6.535156 3.984375 -6.9375 3.984375 -7.46875 C 3.984375 -8.007812 3.882812 -8.414062 3.6875 -8.6875 C 3.5 -8.957031 3.242188 -9.09375 2.921875 -9.09375 C 2.597656 -9.09375 2.335938 -8.953125 2.140625 -8.671875 C 1.953125 -8.398438 1.859375 -8 1.859375 -7.46875 C 1.859375 -6.945312 1.953125 -6.546875 2.140625 -6.265625 C 2.335938 -5.992188 2.597656 -5.859375 2.921875 -5.859375 Z M 9.8125 0.109375 C 9.332031 0.109375 8.898438 0 8.515625 -0.21875 C 8.128906 -0.445312 7.828125 -0.773438 7.609375 -1.203125 C 7.398438 -1.628906 7.296875 -2.125 7.296875 -2.6875 C 7.296875 -3.25 7.398438 -3.738281 7.609375 -4.15625 C 7.828125 -4.582031 8.128906 -4.910156 8.515625 -5.140625 C 8.898438 -5.367188 9.332031 -5.484375 9.8125 -5.484375 C 10.5625 -5.484375 11.171875 -5.226562 11.640625 -4.71875 C 12.109375 -4.21875 12.34375 -3.539062 12.34375 -2.6875 C 12.34375 -1.832031 12.109375 -1.148438 11.640625 -0.640625 C 11.171875 -0.140625 10.5625 0.109375 9.8125 0.109375 Z M 9.8125 -1.078125 C 10.144531 -1.078125 10.40625 -1.210938 10.59375 -1.484375 C 10.78125 -1.765625 10.875 -2.164062 10.875 -2.6875 C 10.875 -3.207031 10.78125 -3.601562 10.59375 -3.875 C 10.40625 -4.15625 10.144531 -4.296875 9.8125 -4.296875 C 9.488281 -4.296875 9.226562 -4.160156 9.03125 -3.890625 C 8.84375 -3.617188 8.75 -3.21875 8.75 -2.6875 C 8.75 -2.15625 8.84375 -1.753906 9.03125 -1.484375 C 9.226562 -1.210938 9.488281 -1.078125 9.8125 -1.078125 Z M 9.8125 -1.078125 "/></g></g></g><g fill="#002454" fill-opacity="1"><g transform="translate(632.357782, 394.355511)"><g><path d="M 5.3125 -6.03125 C 6.195312 -5.882812 6.878906 -5.550781 7.359375 -5.03125 C 7.835938 -4.507812 8.078125 -3.867188 8.078125 -3.109375 C 8.078125 -2.515625 7.921875 -1.96875 7.609375 -1.46875 C 7.296875 -0.96875 6.820312 -0.566406 6.1875 -0.265625 C 5.550781 0.0234375 4.773438 0.171875 3.859375 0.171875 C 3.140625 0.171875 2.4375 0.078125 1.75 -0.109375 C 1.0625 -0.296875 0.472656 -0.566406 -0.015625 -0.921875 L 0.90625 -2.71875 C 1.289062 -2.425781 1.734375 -2.195312 2.234375 -2.03125 C 2.742188 -1.875 3.265625 -1.796875 3.796875 -1.796875 C 4.390625 -1.796875 4.851562 -1.910156 5.1875 -2.140625 C 5.53125 -2.367188 5.703125 -2.691406 5.703125 -3.109375 C 5.703125 -3.941406 5.066406 -4.359375 3.796875 -4.359375 L 2.734375 -4.359375 L 2.734375 -5.90625 L 4.8125 -8.28125 L 0.5 -8.28125 L 0.5 -10.15625 L 7.609375 -10.15625 L 7.609375 -8.640625 Z M 5.3125 -6.03125 "/></g></g></g><g fill="#002454" fill-opacity="1"><g transform="translate(640.946458, 394.355511)"><g><path d="M 4.921875 0.171875 C 4.078125 0.171875 3.328125 -0.0351562 2.671875 -0.453125 C 2.015625 -0.867188 1.5 -1.46875 1.125 -2.25 C 0.75 -3.039062 0.5625 -3.984375 0.5625 -5.078125 C 0.5625 -6.171875 0.75 -7.113281 1.125 -7.90625 C 1.5 -8.695312 2.015625 -9.296875 2.671875 -9.703125 C 3.328125 -10.117188 4.078125 -10.328125 4.921875 -10.328125 C 5.765625 -10.328125 6.515625 -10.117188 7.171875 -9.703125 C 7.828125 -9.296875 8.34375 -8.695312 8.71875 -7.90625 C 9.09375 -7.113281 9.28125 -6.171875 9.28125 -5.078125 C 9.28125 -3.984375 9.09375 -3.039062 8.71875 -2.25 C 8.34375 -1.46875 7.828125 -0.867188 7.171875 -0.453125 C 6.515625 -0.0351562 5.765625 0.171875 4.921875 0.171875 Z M 4.921875 -1.8125 C 5.535156 -1.8125 6.019531 -2.078125 6.375 -2.609375 C 6.726562 -3.140625 6.90625 -3.960938 6.90625 -5.078125 C 6.90625 -6.191406 6.726562 -7.015625 6.375 -7.546875 C 6.019531 -8.078125 5.535156 -8.34375 4.921875 -8.34375 C 4.304688 -8.34375 3.820312 -8.078125 3.46875 -7.546875 C 3.125 -7.015625 2.953125 -6.191406 2.953125 -5.078125 C 2.953125 -3.960938 3.125 -3.140625 3.46875 -2.609375 C 3.820312 -2.078125 4.304688 -1.8125 4.921875 -1.8125 Z M 4.921875 -1.8125 "/></g></g></g><g fill="#002454" fill-opacity="1"><g transform="translate(650.797314, 394.355511)"><g><path d="M 2.921875 -4.671875 C 2.171875 -4.671875 1.5625 -4.925781 1.09375 -5.4375 C 0.625 -5.945312 0.390625 -6.625 0.390625 -7.46875 C 0.390625 -8.320312 0.625 -9.003906 1.09375 -9.515625 C 1.5625 -10.023438 2.171875 -10.28125 2.921875 -10.28125 C 3.660156 -10.28125 4.257812 -10.023438 4.71875 -9.515625 C 5.1875 -9.003906 5.421875 -8.320312 5.421875 -7.46875 C 5.421875 -6.625 5.1875 -5.945312 4.71875 -5.4375 C 4.257812 -4.925781 3.660156 -4.671875 2.921875 -4.671875 Z M 8.96875 -10.15625 L 10.703125 -10.15625 L 3.765625 0 L 2.03125 0 Z M 2.921875 -5.859375 C 3.242188 -5.859375 3.5 -5.992188 3.6875 -6.265625 C 3.882812 -6.535156 3.984375 -6.9375 3.984375 -7.46875 C 3.984375 -8.007812 3.882812 -8.414062 3.6875 -8.6875 C 3.5 -8.957031 3.242188 -9.09375 2.921875 -9.09375 C 2.597656 -9.09375 2.335938 -8.953125 2.140625 -8.671875 C 1.953125 -8.398438 1.859375 -8 1.859375 -7.46875 C 1.859375 -6.945312 1.953125 -6.546875 2.140625 -6.265625 C 2.335938 -5.992188 2.597656 -5.859375 2.921875 -5.859375 Z M 9.8125 0.109375 C 9.332031 0.109375 8.898438 0 8.515625 -0.21875 C 8.128906 -0.445312 7.828125 -0.773438 7.609375 -1.203125 C 7.398438 -1.628906 7.296875 -2.125 7.296875 -2.6875 C 7.296875 -3.25 7.398438 -3.738281 7.609375 -4.15625 C 7.828125 -4.582031 8.128906 -4.910156 8.515625 -5.140625 C 8.898438 -5.367188 9.332031 -5.484375 9.8125 -5.484375 C 10.5625 -5.484375 11.171875 -5.226562 11.640625 -4.71875 C 12.109375 -4.21875 12.34375 -3.539062 12.34375 -2.6875 C 12.34375 -1.832031 12.109375 -1.148438 11.640625 -0.640625 C 11.171875 -0.140625 10.5625 0.109375 9.8125 0.109375 Z M 9.8125 -1.078125 C 10.144531 -1.078125 10.40625 -1.210938 10.59375 -1.484375 C 10.78125 -1.765625 10.875 -2.164062 10.875 -2.6875 C 10.875 -3.207031 10.78125 -3.601562 10.59375 -3.875 C 10.40625 -4.15625 10.144531 -4.296875 9.8125 -4.296875 C 9.488281 -4.296875 9.226562 -4.160156 9.03125 -3.890625 C 8.84375 -3.617188 8.75 -3.21875 8.75 -2.6875 C 8.75 -2.15625 8.84375 -1.753906 9.03125 -1.484375 C 9.226562 -1.210938 9.488281 -1.078125 9.8125 -1.078125 Z M 9.8125 -1.078125 "/></g></g></g><g fill="#002454" fill-opacity="1"><g transform="translate(391.328276, 394.355511)"><g><path d="M 5.453125 -6.375 C 6.109375 -6.375 6.703125 -6.242188 7.234375 -5.984375 C 7.765625 -5.722656 8.179688 -5.351562 8.484375 -4.875 C 8.796875 -4.394531 8.953125 -3.835938 8.953125 -3.203125 C 8.953125 -2.523438 8.78125 -1.929688 8.4375 -1.421875 C 8.101562 -0.910156 7.644531 -0.515625 7.0625 -0.234375 C 6.476562 0.0351562 5.828125 0.171875 5.109375 0.171875 C 3.679688 0.171875 2.566406 -0.257812 1.765625 -1.125 C 0.960938 -2 0.5625 -3.242188 0.5625 -4.859375 C 0.5625 -6.015625 0.78125 -7.003906 1.21875 -7.828125 C 1.65625 -8.648438 2.257812 -9.269531 3.03125 -9.6875 C 3.8125 -10.113281 4.71875 -10.328125 5.75 -10.328125 C 6.289062 -10.328125 6.8125 -10.265625 7.3125 -10.140625 C 7.8125 -10.023438 8.234375 -9.859375 8.578125 -9.640625 L 7.703125 -7.90625 C 7.203125 -8.25 6.570312 -8.421875 5.8125 -8.421875 C 4.945312 -8.421875 4.257812 -8.164062 3.75 -7.65625 C 3.25 -7.15625 2.984375 -6.425781 2.953125 -5.46875 C 3.546875 -6.070312 4.378906 -6.375 5.453125 -6.375 Z M 4.984375 -1.578125 C 5.484375 -1.578125 5.890625 -1.710938 6.203125 -1.984375 C 6.515625 -2.253906 6.671875 -2.625 6.671875 -3.09375 C 6.671875 -3.550781 6.515625 -3.914062 6.203125 -4.1875 C 5.890625 -4.46875 5.472656 -4.609375 4.953125 -4.609375 C 4.441406 -4.609375 4.019531 -4.46875 3.6875 -4.1875 C 3.351562 -3.90625 3.1875 -3.539062 3.1875 -3.09375 C 3.1875 -2.644531 3.347656 -2.28125 3.671875 -2 C 3.992188 -1.71875 4.429688 -1.578125 4.984375 -1.578125 Z M 4.984375 -1.578125 "/></g></g></g><g fill="#002454" fill-opacity="1"><g transform="translate(400.569803, 394.355511)"><g><path d="M 4.921875 0.171875 C 4.078125 0.171875 3.328125 -0.0351562 2.671875 -0.453125 C 2.015625 -0.867188 1.5 -1.46875 1.125 -2.25 C 0.75 -3.039062 0.5625 -3.984375 0.5625 -5.078125 C 0.5625 -6.171875 0.75 -7.113281 1.125 -7.90625 C 1.5 -8.695312 2.015625 -9.296875 2.671875 -9.703125 C 3.328125 -10.117188 4.078125 -10.328125 4.921875 -10.328125 C 5.765625 -10.328125 6.515625 -10.117188 7.171875 -9.703125 C 7.828125 -9.296875 8.34375 -8.695312 8.71875 -7.90625 C 9.09375 -7.113281 9.28125 -6.171875 9.28125 -5.078125 C 9.28125 -3.984375 9.09375 -3.039062 8.71875 -2.25 C 8.34375 -1.46875 7.828125 -0.867188 7.171875 -0.453125 C 6.515625 -0.0351562 5.765625 0.171875 4.921875 0.171875 Z M 4.921875 -1.8125 C 5.535156 -1.8125 6.019531 -2.078125 6.375 -2.609375 C 6.726562 -3.140625 6.90625 -3.960938 6.90625 -5.078125 C 6.90625 -6.191406 6.726562 -7.015625 6.375 -7.546875 C 6.019531 -8.078125 5.535156 -8.34375 4.921875 -8.34375 C 4.304688 -8.34375 3.820312 -8.078125 3.46875 -7.546875 C 3.125 -7.015625 2.953125 -6.191406 2.953125 -5.078125 C 2.953125 -3.960938 3.125 -3.140625 3.46875 -2.609375 C 3.820312 -2.078125 4.304688 -1.8125 4.921875 -1.8125 Z M 4.921875 -1.8125 "/></g></g></g><g fill="#002454" fill-opacity="1"><g transform="translate(410.420659, 394.355511)"><g><path d="M 2.921875 -4.671875 C 2.171875 -4.671875 1.5625 -4.925781 1.09375 -5.4375 C 0.625 -5.945312 0.390625 -6.625 0.390625 -7.46875 C 0.390625 -8.320312 0.625 -9.003906 1.09375 -9.515625 C 1.5625 -10.023438 2.171875 -10.28125 2.921875 -10.28125 C 3.660156 -10.28125 4.257812 -10.023438 4.71875 -9.515625 C 5.1875 -9.003906 5.421875 -8.320312 5.421875 -7.46875 C 5.421875 -6.625 5.1875 -5.945312 4.71875 -5.4375 C 4.257812 -4.925781 3.660156 -4.671875 2.921875 -4.671875 Z M 8.96875 -10.15625 L 10.703125 -10.15625 L 3.765625 0 L 2.03125 0 Z M 2.921875 -5.859375 C 3.242188 -5.859375 3.5 -5.992188 3.6875 -6.265625 C 3.882812 -6.535156 3.984375 -6.9375 3.984375 -7.46875 C 3.984375 -8.007812 3.882812 -8.414062 3.6875 -8.6875 C 3.5 -8.957031 3.242188 -9.09375 2.921875 -9.09375 C 2.597656 -9.09375 2.335938 -8.953125 2.140625 -8.671875 C 1.953125 -8.398438 1.859375 -8 1.859375 -7.46875 C 1.859375 -6.945312 1.953125 -6.546875 2.140625 -6.265625 C 2.335938 -5.992188 2.597656 -5.859375 2.921875 -5.859375 Z M 9.8125 0.109375 C 9.332031 0.109375 8.898438 0 8.515625 -0.21875 C 8.128906 -0.445312 7.828125 -0.773438 7.609375 -1.203125 C 7.398438 -1.628906 7.296875 -2.125 7.296875 -2.6875 C 7.296875 -3.25 7.398438 -3.738281 7.609375 -4.15625 C 7.828125 -4.582031 8.128906 -4.910156 8.515625 -5.140625 C 8.898438 -5.367188 9.332031 -5.484375 9.8125 -5.484375 C 10.5625 -5.484375 11.171875 -5.226562 11.640625 -4.71875 C 12.109375 -4.21875 12.34375 -3.539062 12.34375 -2.6875 C 12.34375 -1.832031 12.109375 -1.148438 11.640625 -0.640625 C 11.171875 -0.140625 10.5625 0.109375 9.8125 0.109375 Z M 9.8125 -1.078125 C 10.144531 -1.078125 10.40625 -1.210938 10.59375 -1.484375 C 10.78125 -1.765625 10.875 -2.164062 10.875 -2.6875 C 10.875 -3.207031 10.78125 -3.601562 10.59375 -3.875 C 10.40625 -4.15625 10.144531 -4.296875 9.8125 -4.296875 C 9.488281 -4.296875 9.226562 -4.160156 9.03125 -3.890625 C 8.84375 -3.617188 8.75 -3.21875 8.75 -2.6875 C 8.75 -2.15625 8.84375 -1.753906 9.03125 -1.484375 C 9.226562 -1.210938 9.488281 -1.078125 9.8125 -1.078125 Z M 9.8125 -1.078125 "/></g></g></g><g fill="#002454" fill-opacity="1"><g transform="translate(49.671044, 400.879222)"><g><path d="M 5.21875 -9.453125 C 6.050781 -9.453125 6.773438 -9.3125 7.390625 -9.03125 C 8.003906 -8.75 8.476562 -8.351562 8.8125 -7.84375 C 9.144531 -7.332031 9.3125 -6.722656 9.3125 -6.015625 C 9.3125 -5.328125 9.144531 -4.722656 8.8125 -4.203125 C 8.476562 -3.679688 8.003906 -3.285156 7.390625 -3.015625 C 6.773438 -2.742188 6.050781 -2.609375 5.21875 -2.609375 L 3.3125 -2.609375 L 3.3125 0 L 1.125 0 L 1.125 -9.453125 Z M 5.09375 -4.390625 C 5.75 -4.390625 6.242188 -4.53125 6.578125 -4.8125 C 6.921875 -5.09375 7.09375 -5.492188 7.09375 -6.015625 C 7.09375 -6.546875 6.921875 -6.953125 6.578125 -7.234375 C 6.242188 -7.523438 5.75 -7.671875 5.09375 -7.671875 L 3.3125 -7.671875 L 3.3125 -4.390625 Z M 5.09375 -4.390625 "/></g></g></g><g fill="#002454" fill-opacity="1"><g transform="translate(58.917824, 400.879222)"><g><path d="M 5.703125 0.15625 C 4.710938 0.15625 3.820312 -0.0507812 3.03125 -0.46875 C 2.25 -0.894531 1.632812 -1.476562 1.1875 -2.21875 C 0.75 -2.957031 0.53125 -3.789062 0.53125 -4.71875 C 0.53125 -5.644531 0.75 -6.476562 1.1875 -7.21875 C 1.632812 -7.96875 2.25 -8.550781 3.03125 -8.96875 C 3.820312 -9.394531 4.710938 -9.609375 5.703125 -9.609375 C 6.679688 -9.609375 7.5625 -9.394531 8.34375 -8.96875 C 9.125 -8.550781 9.738281 -7.96875 10.1875 -7.21875 C 10.644531 -6.476562 10.875 -5.644531 10.875 -4.71875 C 10.875 -3.789062 10.644531 -2.957031 10.1875 -2.21875 C 9.738281 -1.476562 9.125 -0.894531 8.34375 -0.46875 C 7.5625 -0.0507812 6.679688 0.15625 5.703125 0.15625 Z M 5.703125 -1.703125 C 6.253906 -1.703125 6.753906 -1.828125 7.203125 -2.078125 C 7.660156 -2.335938 8.015625 -2.695312 8.265625 -3.15625 C 8.523438 -3.613281 8.65625 -4.132812 8.65625 -4.71875 C 8.65625 -5.3125 8.523438 -5.835938 8.265625 -6.296875 C 8.015625 -6.753906 7.660156 -7.109375 7.203125 -7.359375 C 6.753906 -7.617188 6.253906 -7.75 5.703125 -7.75 C 5.140625 -7.75 4.632812 -7.617188 4.1875 -7.359375 C 3.738281 -7.109375 3.382812 -6.753906 3.125 -6.296875 C 2.863281 -5.835938 2.734375 -5.3125 2.734375 -4.71875 C 2.734375 -4.132812 2.863281 -3.613281 3.125 -3.15625 C 3.382812 -2.695312 3.738281 -2.335938 4.1875 -2.078125 C 4.632812 -1.828125 5.140625 -1.703125 5.703125 -1.703125 Z M 5.703125 -1.703125 "/></g></g></g><g fill="#002454" fill-opacity="1"><g transform="translate(69.676598, 400.879222)"><g><path d="M 7.140625 0 L 5.3125 -2.625 L 3.3125 -2.625 L 3.3125 0 L 1.125 0 L 1.125 -9.453125 L 5.21875 -9.453125 C 6.050781 -9.453125 6.773438 -9.3125 7.390625 -9.03125 C 8.003906 -8.75 8.476562 -8.351562 8.8125 -7.84375 C 9.144531 -7.332031 9.3125 -6.722656 9.3125 -6.015625 C 9.3125 -5.316406 9.140625 -4.710938 8.796875 -4.203125 C 8.460938 -3.691406 7.988281 -3.300781 7.375 -3.03125 L 9.484375 0 Z M 7.09375 -6.015625 C 7.09375 -6.546875 6.921875 -6.953125 6.578125 -7.234375 C 6.242188 -7.523438 5.75 -7.671875 5.09375 -7.671875 L 3.3125 -7.671875 L 3.3125 -4.375 L 5.09375 -4.375 C 5.75 -4.375 6.242188 -4.515625 6.578125 -4.796875 C 6.921875 -5.085938 7.09375 -5.492188 7.09375 -6.015625 Z M 7.09375 -6.015625 "/></g></g></g><g fill="#002454" fill-opacity="1"><g transform="translate(78.963878, 400.879222)"><g><path d="M 5.640625 0.15625 C 4.679688 0.15625 3.8125 -0.0507812 3.03125 -0.46875 C 2.25 -0.882812 1.632812 -1.460938 1.1875 -2.203125 C 0.75 -2.953125 0.53125 -3.789062 0.53125 -4.71875 C 0.53125 -5.65625 0.75 -6.492188 1.1875 -7.234375 C 1.632812 -7.984375 2.25 -8.566406 3.03125 -8.984375 C 3.8125 -9.398438 4.6875 -9.609375 5.65625 -9.609375 C 6.476562 -9.609375 7.21875 -9.460938 7.875 -9.171875 C 8.539062 -8.890625 9.097656 -8.476562 9.546875 -7.9375 L 8.140625 -6.640625 C 7.503906 -7.378906 6.710938 -7.75 5.765625 -7.75 C 5.179688 -7.75 4.660156 -7.617188 4.203125 -7.359375 C 3.742188 -7.109375 3.382812 -6.753906 3.125 -6.296875 C 2.863281 -5.835938 2.734375 -5.3125 2.734375 -4.71875 C 2.734375 -4.132812 2.863281 -3.613281 3.125 -3.15625 C 3.382812 -2.695312 3.742188 -2.335938 4.203125 -2.078125 C 4.660156 -1.828125 5.179688 -1.703125 5.765625 -1.703125 C 6.710938 -1.703125 7.503906 -2.078125 8.140625 -2.828125 L 9.546875 -1.53125 C 9.097656 -0.976562 8.539062 -0.554688 7.875 -0.265625 C 7.207031 0.015625 6.460938 0.15625 5.640625 0.15625 Z M 5.640625 0.15625 "/></g></g></g><g fill="#002454" fill-opacity="1"><g transform="translate(88.224162, 400.879222)"><g><path d="M 8.4375 -1.75 L 8.4375 0 L 1.125 0 L 1.125 -9.453125 L 8.265625 -9.453125 L 8.265625 -7.6875 L 3.296875 -7.6875 L 3.296875 -5.640625 L 7.6875 -5.640625 L 7.6875 -3.9375 L 3.296875 -3.9375 L 3.296875 -1.75 Z M 8.4375 -1.75 "/></g></g></g><g fill="#002454" fill-opacity="1"><g transform="translate(96.647449, 400.879222)"><g><path d="M 9.78125 -9.453125 L 9.78125 0 L 7.984375 0 L 3.28125 -5.734375 L 3.28125 0 L 1.125 0 L 1.125 -9.453125 L 2.921875 -9.453125 L 7.625 -3.71875 L 7.625 -9.453125 Z M 9.78125 -9.453125 "/></g></g></g><g fill="#002454" fill-opacity="1"><g transform="translate(106.920226, 400.879222)"><g><path d="M 3.078125 -7.671875 L 0.046875 -7.671875 L 0.046875 -9.453125 L 8.28125 -9.453125 L 8.28125 -7.671875 L 5.265625 -7.671875 L 5.265625 0 L 3.078125 0 Z M 3.078125 -7.671875 "/></g></g></g><g fill="#002454" fill-opacity="1"><g transform="translate(114.628016, 400.879222)"><g><path d="M 7.34375 -2.03125 L 2.953125 -2.03125 L 2.125 0 L -0.125 0 L 4.09375 -9.453125 L 6.25 -9.453125 L 10.46875 0 L 8.1875 0 Z M 6.65625 -3.6875 L 5.15625 -7.296875 L 3.65625 -3.6875 Z M 6.65625 -3.6875 "/></g></g></g><g fill="#002454" fill-opacity="1"><g transform="translate(124.333795, 400.879222)"><g><path d="M 2.859375 0.15625 C 2.222656 0.15625 1.632812 0.0390625 1.09375 -0.1875 C 0.5625 -0.425781 0.125 -0.769531 -0.21875 -1.21875 L 1 -2.671875 C 1.507812 -1.984375 2.09375 -1.640625 2.75 -1.640625 C 3.644531 -1.640625 4.09375 -2.160156 4.09375 -3.203125 L 4.09375 -7.6875 L 0.765625 -7.6875 L 0.765625 -9.453125 L 6.265625 -9.453125 L 6.265625 -3.328125 C 6.265625 -2.160156 5.972656 -1.285156 5.390625 -0.703125 C 4.816406 -0.128906 3.972656 0.15625 2.859375 0.15625 Z M 2.859375 0.15625 "/></g></g></g><g fill="#002454" fill-opacity="1"><g transform="translate(131.002096, 400.879222)"><g><path d="M 8.4375 -1.75 L 8.4375 0 L 1.125 0 L 1.125 -9.453125 L 8.265625 -9.453125 L 8.265625 -7.6875 L 3.296875 -7.6875 L 3.296875 -5.640625 L 7.6875 -5.640625 L 7.6875 -3.9375 L 3.296875 -3.9375 L 3.296875 -1.75 Z M 8.4375 -1.75 "/></g></g></g><g fill="#002454" fill-opacity="1"><g transform="translate(139.425382, 400.879222)"><g/></g></g><g fill="#002454" fill-opacity="1"><g transform="translate(142.610696, 400.879222)"><g><path d="M 1.125 -9.453125 L 5.40625 -9.453125 C 6.4375 -9.453125 7.34375 -9.253906 8.125 -8.859375 C 8.914062 -8.472656 9.53125 -7.921875 9.96875 -7.203125 C 10.40625 -6.492188 10.625 -5.664062 10.625 -4.71875 C 10.625 -3.78125 10.40625 -2.953125 9.96875 -2.234375 C 9.53125 -1.523438 8.914062 -0.972656 8.125 -0.578125 C 7.34375 -0.191406 6.4375 0 5.40625 0 L 1.125 0 Z M 5.3125 -1.796875 C 6.25 -1.796875 7 -2.054688 7.5625 -2.578125 C 8.125 -3.109375 8.40625 -3.820312 8.40625 -4.71875 C 8.40625 -5.625 8.125 -6.335938 7.5625 -6.859375 C 7 -7.390625 6.25 -7.65625 5.3125 -7.65625 L 3.3125 -7.65625 L 3.3125 -1.796875 Z M 5.3125 -1.796875 "/></g></g></g><g fill="#002454" fill-opacity="1"><g transform="translate(153.126465, 400.879222)"><g><path d="M 8.4375 -1.75 L 8.4375 0 L 1.125 0 L 1.125 -9.453125 L 8.265625 -9.453125 L 8.265625 -7.6875 L 3.296875 -7.6875 L 3.296875 -5.640625 L 7.6875 -5.640625 L 7.6875 -3.9375 L 3.296875 -3.9375 L 3.296875 -1.75 Z M 8.4375 -1.75 "/></g></g></g><g fill="#002454" fill-opacity="1"><g transform="translate(161.549751, 400.879222)"><g/></g></g><g fill="#002454" fill-opacity="1"><g transform="translate(164.735065, 400.879222)"><g><path d="M 5.3125 0.15625 C 3.96875 0.15625 2.921875 -0.210938 2.171875 -0.953125 C 1.421875 -1.703125 1.046875 -2.769531 1.046875 -4.15625 L 1.046875 -9.453125 L 3.21875 -9.453125 L 3.21875 -4.234375 C 3.21875 -2.546875 3.921875 -1.703125 5.328125 -1.703125 C 6.015625 -1.703125 6.535156 -1.90625 6.890625 -2.3125 C 7.253906 -2.71875 7.4375 -3.359375 7.4375 -4.234375 L 7.4375 -9.453125 L 9.59375 -9.453125 L 9.59375 -4.15625 C 9.59375 -2.769531 9.21875 -1.703125 8.46875 -0.953125 C 7.71875 -0.210938 6.664062 0.15625 5.3125 0.15625 Z M 5.3125 0.15625 "/></g></g></g><g fill="#002454" fill-opacity="1"><g transform="translate(174.737842, 400.879222)"><g><path d="M 4.21875 0.15625 C 3.476562 0.15625 2.757812 0.0546875 2.0625 -0.140625 C 1.363281 -0.347656 0.800781 -0.613281 0.375 -0.9375 L 1.125 -2.578125 C 1.53125 -2.285156 2.007812 -2.046875 2.5625 -1.859375 C 3.125 -1.679688 3.679688 -1.59375 4.234375 -1.59375 C 4.859375 -1.59375 5.316406 -1.679688 5.609375 -1.859375 C 5.910156 -2.046875 6.0625 -2.296875 6.0625 -2.609375 C 6.0625 -2.828125 5.972656 -3.007812 5.796875 -3.15625 C 5.617188 -3.3125 5.394531 -3.429688 5.125 -3.515625 C 4.851562 -3.609375 4.484375 -3.710938 4.015625 -3.828125 C 3.285156 -3.992188 2.691406 -4.160156 2.234375 -4.328125 C 1.773438 -4.503906 1.378906 -4.78125 1.046875 -5.15625 C 0.722656 -5.53125 0.5625 -6.035156 0.5625 -6.671875 C 0.5625 -7.222656 0.707031 -7.71875 1 -8.15625 C 1.300781 -8.601562 1.75 -8.957031 2.34375 -9.21875 C 2.945312 -9.476562 3.679688 -9.609375 4.546875 -9.609375 C 5.148438 -9.609375 5.738281 -9.535156 6.3125 -9.390625 C 6.894531 -9.253906 7.398438 -9.050781 7.828125 -8.78125 L 7.15625 -7.109375 C 6.28125 -7.609375 5.40625 -7.859375 4.53125 -7.859375 C 3.925781 -7.859375 3.472656 -7.757812 3.171875 -7.5625 C 2.878906 -7.363281 2.734375 -7.101562 2.734375 -6.78125 C 2.734375 -6.457031 2.898438 -6.210938 3.234375 -6.046875 C 3.578125 -5.890625 4.097656 -5.738281 4.796875 -5.59375 C 5.515625 -5.414062 6.101562 -5.238281 6.5625 -5.0625 C 7.019531 -4.894531 7.410156 -4.628906 7.734375 -4.265625 C 8.066406 -3.898438 8.234375 -3.398438 8.234375 -2.765625 C 8.234375 -2.222656 8.082031 -1.726562 7.78125 -1.28125 C 7.476562 -0.84375 7.023438 -0.492188 6.421875 -0.234375 C 5.816406 0.0234375 5.082031 0.15625 4.21875 0.15625 Z M 4.21875 0.15625 "/></g></g></g><g fill="#002454" fill-opacity="1"><g transform="translate(182.715633, 400.879222)"><g><path d="M 7.34375 -2.03125 L 2.953125 -2.03125 L 2.125 0 L -0.125 0 L 4.09375 -9.453125 L 6.25 -9.453125 L 10.46875 0 L 8.1875 0 Z M 6.65625 -3.6875 L 5.15625 -7.296875 L 3.65625 -3.6875 Z M 6.65625 -3.6875 "/></g></g></g><g fill="#002454" fill-opacity="1"><g transform="translate(192.421412, 400.879222)"><g><path d="M 8.0625 -4.90625 C 8.601562 -4.738281 9.023438 -4.453125 9.328125 -4.046875 C 9.628906 -3.648438 9.78125 -3.160156 9.78125 -2.578125 C 9.78125 -1.753906 9.457031 -1.117188 8.8125 -0.671875 C 8.175781 -0.222656 7.238281 0 6 0 L 1.125 0 L 1.125 -9.453125 L 5.734375 -9.453125 C 6.890625 -9.453125 7.773438 -9.226562 8.390625 -8.78125 C 9.003906 -8.34375 9.3125 -7.75 9.3125 -7 C 9.3125 -6.53125 9.203125 -6.113281 8.984375 -5.75 C 8.765625 -5.394531 8.457031 -5.113281 8.0625 -4.90625 Z M 3.296875 -7.796875 L 3.296875 -5.578125 L 5.46875 -5.578125 C 6.007812 -5.578125 6.414062 -5.671875 6.6875 -5.859375 C 6.96875 -6.046875 7.109375 -6.328125 7.109375 -6.703125 C 7.109375 -7.066406 6.96875 -7.335938 6.6875 -7.515625 C 6.414062 -7.703125 6.007812 -7.796875 5.46875 -7.796875 Z M 5.84375 -1.640625 C 6.414062 -1.640625 6.847656 -1.734375 7.140625 -1.921875 C 7.441406 -2.117188 7.59375 -2.414062 7.59375 -2.8125 C 7.59375 -3.59375 7.007812 -3.984375 5.84375 -3.984375 L 3.296875 -3.984375 L 3.296875 -1.640625 Z M 5.84375 -1.640625 "/></g></g></g><g fill="#002454" fill-opacity="1"><g transform="translate(202.113688, 400.879222)"><g><path d="M 1.125 -9.453125 L 3.3125 -9.453125 L 3.3125 0 L 1.125 0 Z M 1.125 -9.453125 "/></g></g></g><g fill="#002454" fill-opacity="1"><g transform="translate(205.9065, 400.879222)"><g><path d="M 1.125 -9.453125 L 3.3125 -9.453125 L 3.3125 -1.78125 L 8.046875 -1.78125 L 8.046875 0 L 1.125 0 Z M 1.125 -9.453125 "/></g></g></g><g fill="#002454" fill-opacity="1"><g transform="translate(213.425291, 400.879222)"><g><path d="M 1.125 -9.453125 L 3.3125 -9.453125 L 3.3125 0 L 1.125 0 Z M 1.125 -9.453125 "/></g></g></g><g fill="#002454" fill-opacity="1"><g transform="translate(217.218103, 400.879222)"><g><path d="M 1.125 -9.453125 L 5.40625 -9.453125 C 6.4375 -9.453125 7.34375 -9.253906 8.125 -8.859375 C 8.914062 -8.472656 9.53125 -7.921875 9.96875 -7.203125 C 10.40625 -6.492188 10.625 -5.664062 10.625 -4.71875 C 10.625 -3.78125 10.40625 -2.953125 9.96875 -2.234375 C 9.53125 -1.523438 8.914062 -0.972656 8.125 -0.578125 C 7.34375 -0.191406 6.4375 0 5.40625 0 L 1.125 0 Z M 5.3125 -1.796875 C 6.25 -1.796875 7 -2.054688 7.5625 -2.578125 C 8.125 -3.109375 8.40625 -3.820312 8.40625 -4.71875 C 8.40625 -5.625 8.125 -6.335938 7.5625 -6.859375 C 7 -7.390625 6.25 -7.65625 5.3125 -7.65625 L 3.3125 -7.65625 L 3.3125 -1.796875 Z M 5.3125 -1.796875 "/></g></g></g><g fill="#002454" fill-opacity="1"><g transform="translate(227.733872, 400.879222)"><g><path d="M 7.34375 -2.03125 L 2.953125 -2.03125 L 2.125 0 L -0.125 0 L 4.09375 -9.453125 L 6.25 -9.453125 L 10.46875 0 L 8.1875 0 Z M 6.65625 -3.6875 L 5.15625 -7.296875 L 3.65625 -3.6875 Z M 6.65625 -3.6875 "/></g></g></g><g fill="#002454" fill-opacity="1"><g transform="translate(237.439652, 400.879222)"><g><path d="M 1.125 -9.453125 L 5.40625 -9.453125 C 6.4375 -9.453125 7.34375 -9.253906 8.125 -8.859375 C 8.914062 -8.472656 9.53125 -7.921875 9.96875 -7.203125 C 10.40625 -6.492188 10.625 -5.664062 10.625 -4.71875 C 10.625 -3.78125 10.40625 -2.953125 9.96875 -2.234375 C 9.53125 -1.523438 8.914062 -0.972656 8.125 -0.578125 C 7.34375 -0.191406 6.4375 0 5.40625 0 L 1.125 0 Z M 5.3125 -1.796875 C 6.25 -1.796875 7 -2.054688 7.5625 -2.578125 C 8.125 -3.109375 8.40625 -3.820312 8.40625 -4.71875 C 8.40625 -5.625 8.125 -6.335938 7.5625 -6.859375 C 7 -7.390625 6.25 -7.65625 5.3125 -7.65625 L 3.3125 -7.65625 L 3.3125 -1.796875 Z M 5.3125 -1.796875 "/></g></g></g><g fill="#002454" fill-opacity="1"><g transform="translate(48.729676, 423.676418)"><g><path d="M 5.078125 -9.453125 C 6.285156 -9.453125 7.226562 -9.160156 7.90625 -8.578125 C 8.59375 -8.003906 8.9375 -7.210938 8.9375 -6.203125 C 8.9375 -5.203125 8.59375 -4.414062 7.90625 -3.84375 C 7.226562 -3.269531 6.285156 -2.984375 5.078125 -2.984375 L 2.53125 -2.984375 L 2.53125 0 L 1.53125 0 L 1.53125 -9.453125 Z M 5.046875 -3.859375 C 5.984375 -3.859375 6.695312 -4.0625 7.1875 -4.46875 C 7.6875 -4.882812 7.9375 -5.460938 7.9375 -6.203125 C 7.9375 -6.972656 7.6875 -7.5625 7.1875 -7.96875 C 6.695312 -8.382812 5.984375 -8.59375 5.046875 -8.59375 L 2.53125 -8.59375 L 2.53125 -3.859375 Z M 5.046875 -3.859375 "/></g></g></g><g fill="#002454" fill-opacity="1"><g transform="translate(58.422615, 423.676418)"><g><path d="M 8.21875 -0.859375 L 8.21875 0 L 1.53125 0 L 1.53125 -9.453125 L 8.015625 -9.453125 L 8.015625 -8.59375 L 2.53125 -8.59375 L 2.53125 -5.21875 L 7.421875 -5.21875 L 7.421875 -4.375 L 2.53125 -4.375 L 2.53125 -0.859375 Z M 8.21875 -0.859375 "/></g></g></g><g fill="#002454" fill-opacity="1"><g transform="translate(67.454063, 423.676418)"><g><path d="M 7.984375 0 L 5.828125 -3.03125 C 5.585938 -3.007812 5.335938 -3 5.078125 -3 L 2.53125 -3 L 2.53125 0 L 1.53125 0 L 1.53125 -9.453125 L 5.078125 -9.453125 C 6.285156 -9.453125 7.226562 -9.160156 7.90625 -8.578125 C 8.59375 -8.003906 8.9375 -7.210938 8.9375 -6.203125 C 8.9375 -5.472656 8.75 -4.851562 8.375 -4.34375 C 8 -3.832031 7.46875 -3.460938 6.78125 -3.234375 L 9.078125 0 Z M 5.046875 -3.84375 C 5.984375 -3.84375 6.695312 -4.050781 7.1875 -4.46875 C 7.6875 -4.882812 7.9375 -5.460938 7.9375 -6.203125 C 7.9375 -6.972656 7.6875 -7.5625 7.1875 -7.96875 C 6.695312 -8.382812 5.984375 -8.59375 5.046875 -8.59375 L 2.53125 -8.59375 L 2.53125 -3.84375 Z M 5.046875 -3.84375 "/></g></g></g><g fill="#002454" fill-opacity="1"><g transform="translate(77.2145, 423.676418)"><g><path d="M 5.640625 0.078125 C 4.703125 0.078125 3.859375 -0.125 3.109375 -0.53125 C 2.359375 -0.945312 1.769531 -1.519531 1.34375 -2.25 C 0.914062 -2.988281 0.703125 -3.8125 0.703125 -4.71875 C 0.703125 -5.632812 0.914062 -6.457031 1.34375 -7.1875 C 1.769531 -7.914062 2.359375 -8.488281 3.109375 -8.90625 C 3.867188 -9.320312 4.71875 -9.53125 5.65625 -9.53125 C 6.351562 -9.53125 7 -9.410156 7.59375 -9.171875 C 8.1875 -8.941406 8.691406 -8.601562 9.109375 -8.15625 L 8.484375 -7.515625 C 7.742188 -8.265625 6.8125 -8.640625 5.6875 -8.640625 C 4.9375 -8.640625 4.253906 -8.46875 3.640625 -8.125 C 3.035156 -7.78125 2.554688 -7.3125 2.203125 -6.71875 C 1.859375 -6.125 1.6875 -5.457031 1.6875 -4.71875 C 1.6875 -3.988281 1.859375 -3.328125 2.203125 -2.734375 C 2.554688 -2.140625 3.035156 -1.671875 3.640625 -1.328125 C 4.253906 -0.984375 4.9375 -0.8125 5.6875 -0.8125 C 6.820312 -0.8125 7.753906 -1.1875 8.484375 -1.9375 L 9.109375 -1.3125 C 8.691406 -0.863281 8.1875 -0.519531 7.59375 -0.28125 C 7 -0.0390625 6.347656 0.078125 5.640625 0.078125 Z M 5.640625 0.078125 "/></g></g></g><g fill="#002454" fill-opacity="1"><g transform="translate(86.920943, 423.676418)"><g><path d="M 8.21875 -0.859375 L 8.21875 0 L 1.53125 0 L 1.53125 -9.453125 L 8.015625 -9.453125 L 8.015625 -8.59375 L 2.53125 -8.59375 L 2.53125 -5.21875 L 7.421875 -5.21875 L 7.421875 -4.375 L 2.53125 -4.375 L 2.53125 -0.859375 Z M 8.21875 -0.859375 "/></g></g></g><g fill="#002454" fill-opacity="1"><g transform="translate(95.952391, 423.676418)"><g><path d="M 9.4375 -9.453125 L 9.4375 0 L 8.609375 0 L 2.53125 -7.671875 L 2.53125 0 L 1.53125 0 L 1.53125 -9.453125 L 2.359375 -9.453125 L 8.453125 -1.78125 L 8.453125 -9.453125 Z M 9.4375 -9.453125 "/></g></g></g><g fill="#002454" fill-opacity="1"><g transform="translate(106.927824, 423.676418)"><g><path d="M 3.375 -8.59375 L 0.046875 -8.59375 L 0.046875 -9.453125 L 7.6875 -9.453125 L 7.6875 -8.59375 L 4.375 -8.59375 L 4.375 0 L 3.375 0 Z M 3.375 -8.59375 "/></g></g></g><g fill="#002454" fill-opacity="1"><g transform="translate(114.676778, 423.676418)"><g><path d="M 7.46875 -2.53125 L 2.203125 -2.53125 L 1.0625 0 L 0.03125 0 L 4.34375 -9.453125 L 5.328125 -9.453125 L 9.65625 0 L 8.59375 0 Z M 7.09375 -3.328125 L 4.828125 -8.40625 L 2.5625 -3.328125 Z M 7.09375 -3.328125 "/></g></g></g><g fill="#002454" fill-opacity="1"><g transform="translate(124.356214, 423.676418)"><g><path d="M 8.1875 -4.71875 L 9.15625 -4.71875 L 9.15625 -1.125 C 8.707031 -0.738281 8.179688 -0.441406 7.578125 -0.234375 C 6.984375 -0.0234375 6.351562 0.078125 5.6875 0.078125 C 4.738281 0.078125 3.882812 -0.125 3.125 -0.53125 C 2.375 -0.945312 1.78125 -1.519531 1.34375 -2.25 C 0.914062 -2.988281 0.703125 -3.8125 0.703125 -4.71875 C 0.703125 -5.632812 0.914062 -6.457031 1.34375 -7.1875 C 1.78125 -7.914062 2.375 -8.488281 3.125 -8.90625 C 3.882812 -9.320312 4.742188 -9.53125 5.703125 -9.53125 C 6.421875 -9.53125 7.082031 -9.414062 7.6875 -9.1875 C 8.289062 -8.957031 8.796875 -8.617188 9.203125 -8.171875 L 8.59375 -7.53125 C 7.84375 -8.269531 6.890625 -8.640625 5.734375 -8.640625 C 4.972656 -8.640625 4.28125 -8.46875 3.65625 -8.125 C 3.039062 -7.789062 2.554688 -7.320312 2.203125 -6.71875 C 1.859375 -6.125 1.6875 -5.457031 1.6875 -4.71875 C 1.6875 -3.988281 1.859375 -3.328125 2.203125 -2.734375 C 2.554688 -2.140625 3.039062 -1.671875 3.65625 -1.328125 C 4.269531 -0.984375 4.957031 -0.8125 5.71875 -0.8125 C 6.695312 -0.8125 7.519531 -1.050781 8.1875 -1.53125 Z M 8.1875 -4.71875 "/></g></g></g><g fill="#002454" fill-opacity="1"><g transform="translate(134.791646, 423.676418)"><g><path d="M 8.21875 -0.859375 L 8.21875 0 L 1.53125 0 L 1.53125 -9.453125 L 8.015625 -9.453125 L 8.015625 -8.59375 L 2.53125 -8.59375 L 2.53125 -5.21875 L 7.421875 -5.21875 L 7.421875 -4.375 L 2.53125 -4.375 L 2.53125 -0.859375 Z M 8.21875 -0.859375 "/></g></g></g><g fill="#002454" fill-opacity="1"><g transform="translate(143.827328, 423.676418)"><g/></g></g><g fill="#002454" fill-opacity="1"><g transform="translate(147.36639, 423.676418)"><g/></g></g><g fill="#002454" fill-opacity="1"><g transform="translate(150.905453, 423.676418)"><g><path d="M 5.34375 0.078125 C 4.125 0.078125 3.171875 -0.269531 2.484375 -0.96875 C 1.796875 -1.675781 1.453125 -2.695312 1.453125 -4.03125 L 1.453125 -9.453125 L 2.453125 -9.453125 L 2.453125 -4.078125 C 2.453125 -2.984375 2.695312 -2.164062 3.1875 -1.625 C 3.6875 -1.082031 4.40625 -0.8125 5.34375 -0.8125 C 6.289062 -0.8125 7.007812 -1.082031 7.5 -1.625 C 8 -2.164062 8.25 -2.984375 8.25 -4.078125 L 8.25 -9.453125 L 9.21875 -9.453125 L 9.21875 -4.03125 C 9.21875 -2.695312 8.878906 -1.675781 8.203125 -0.96875 C 7.523438 -0.269531 6.570312 0.078125 5.34375 0.078125 Z M 5.34375 0.078125 "/></g></g></g><g fill="#002454" fill-opacity="1"><g transform="translate(161.597381, 423.676418)"><g><path d="M 4.140625 0.078125 C 3.441406 0.078125 2.769531 -0.03125 2.125 -0.25 C 1.476562 -0.476562 0.984375 -0.773438 0.640625 -1.140625 L 1.03125 -1.921875 C 1.363281 -1.578125 1.8125 -1.296875 2.375 -1.078125 C 2.945312 -0.867188 3.535156 -0.765625 4.140625 -0.765625 C 4.984375 -0.765625 5.617188 -0.921875 6.046875 -1.234375 C 6.472656 -1.546875 6.6875 -1.945312 6.6875 -2.4375 C 6.6875 -2.820312 6.570312 -3.125 6.34375 -3.34375 C 6.113281 -3.570312 5.832031 -3.742188 5.5 -3.859375 C 5.164062 -3.984375 4.703125 -4.117188 4.109375 -4.265625 C 3.390625 -4.441406 2.816406 -4.613281 2.390625 -4.78125 C 1.972656 -4.945312 1.613281 -5.203125 1.3125 -5.546875 C 1.007812 -5.890625 0.859375 -6.351562 0.859375 -6.9375 C 0.859375 -7.414062 0.984375 -7.847656 1.234375 -8.234375 C 1.492188 -8.628906 1.882812 -8.941406 2.40625 -9.171875 C 2.925781 -9.410156 3.570312 -9.53125 4.34375 -9.53125 C 4.882812 -9.53125 5.410156 -9.453125 5.921875 -9.296875 C 6.441406 -9.148438 6.894531 -8.945312 7.28125 -8.6875 L 6.9375 -7.890625 C 6.539062 -8.148438 6.117188 -8.347656 5.671875 -8.484375 C 5.222656 -8.617188 4.78125 -8.6875 4.34375 -8.6875 C 3.519531 -8.6875 2.894531 -8.523438 2.46875 -8.203125 C 2.050781 -7.878906 1.84375 -7.46875 1.84375 -6.96875 C 1.84375 -6.59375 1.957031 -6.285156 2.1875 -6.046875 C 2.414062 -5.816406 2.703125 -5.640625 3.046875 -5.515625 C 3.398438 -5.398438 3.867188 -5.269531 4.453125 -5.125 C 5.148438 -4.957031 5.710938 -4.789062 6.140625 -4.625 C 6.566406 -4.457031 6.925781 -4.203125 7.21875 -3.859375 C 7.519531 -3.523438 7.671875 -3.070312 7.671875 -2.5 C 7.671875 -2.019531 7.539062 -1.582031 7.28125 -1.1875 C 7.03125 -0.800781 6.640625 -0.492188 6.109375 -0.265625 C 5.578125 -0.0351562 4.921875 0.078125 4.140625 0.078125 Z M 4.140625 0.078125 "/></g></g></g><g fill="#002454" fill-opacity="1"><g transform="translate(169.899829, 423.676418)"><g><path d="M 7.46875 -2.53125 L 2.203125 -2.53125 L 1.0625 0 L 0.03125 0 L 4.34375 -9.453125 L 5.328125 -9.453125 L 9.65625 0 L 8.59375 0 Z M 7.09375 -3.328125 L 4.828125 -8.40625 L 2.5625 -3.328125 Z M 7.09375 -3.328125 "/></g></g></g><g fill="#002454" fill-opacity="1"><g transform="translate(179.579264, 423.676418)"><g><path d="M 7.5 -4.875 C 8.113281 -4.738281 8.585938 -4.46875 8.921875 -4.0625 C 9.265625 -3.664062 9.4375 -3.15625 9.4375 -2.53125 C 9.4375 -1.71875 9.132812 -1.09375 8.53125 -0.65625 C 7.9375 -0.21875 7.054688 0 5.890625 0 L 1.53125 0 L 1.53125 -9.453125 L 5.609375 -9.453125 C 6.671875 -9.453125 7.488281 -9.238281 8.0625 -8.8125 C 8.644531 -8.394531 8.9375 -7.796875 8.9375 -7.015625 C 8.9375 -6.492188 8.804688 -6.050781 8.546875 -5.6875 C 8.296875 -5.320312 7.945312 -5.050781 7.5 -4.875 Z M 2.53125 -8.625 L 2.53125 -5.203125 L 5.546875 -5.203125 C 6.316406 -5.203125 6.90625 -5.347656 7.3125 -5.640625 C 7.726562 -5.929688 7.9375 -6.351562 7.9375 -6.90625 C 7.9375 -7.46875 7.726562 -7.894531 7.3125 -8.1875 C 6.90625 -8.476562 6.316406 -8.625 5.546875 -8.625 Z M 5.875 -0.828125 C 6.71875 -0.828125 7.351562 -0.96875 7.78125 -1.25 C 8.21875 -1.539062 8.4375 -1.992188 8.4375 -2.609375 C 8.4375 -3.785156 7.582031 -4.375 5.875 -4.375 L 2.53125 -4.375 L 2.53125 -0.828125 Z M 5.875 -0.828125 "/></g></g></g><g fill="#002454" fill-opacity="1"><g transform="translate(189.7582, 423.676418)"><g><path d="M 1.53125 -9.453125 L 2.53125 -9.453125 L 2.53125 0 L 1.53125 0 Z M 1.53125 -9.453125 "/></g></g></g><g fill="#002454" fill-opacity="1"><g transform="translate(193.835169, 423.676418)"><g><path d="M 1.53125 -9.453125 L 2.53125 -9.453125 L 2.53125 -0.859375 L 7.828125 -0.859375 L 7.828125 0 L 1.53125 0 Z M 1.53125 -9.453125 "/></g></g></g><g fill="#002454" fill-opacity="1"><g transform="translate(201.786615, 423.676418)"><g><path d="M 1.53125 -9.453125 L 2.53125 -9.453125 L 2.53125 0 L 1.53125 0 Z M 1.53125 -9.453125 "/></g></g></g><g fill="#002454" fill-opacity="1"><g transform="translate(205.863584, 423.676418)"><g><path d="M 3.375 -8.59375 L 0.046875 -8.59375 L 0.046875 -9.453125 L 7.6875 -9.453125 L 7.6875 -8.59375 L 4.375 -8.59375 L 4.375 0 L 3.375 0 Z M 3.375 -8.59375 "/></g></g></g><g fill="#002454" fill-opacity="1"><g transform="translate(213.612538, 423.676418)"><g><path d="M 4.78125 -3.265625 L 4.78125 0 L 3.796875 0 L 3.796875 -3.265625 L 0.015625 -9.453125 L 1.078125 -9.453125 L 4.3125 -4.140625 L 7.5625 -9.453125 L 8.5625 -9.453125 Z M 4.78125 -3.265625 "/></g></g></g><g transform="matrix(1, 0, 0, 1, 649, 277)"><g clip-path="url(#374efc9d18)"><g clip-path="url(#8e4f28be7f)"><g fill="#002454" fill-opacity="1"><g transform="translate(0.539321, 14.899585)"><g><path d="M 7.515625 -6.609375 L 7.140625 -3.5625 L 9.203125 -3.5625 L 9.203125 -2.765625 L 7.046875 -2.765625 L 6.703125 0 L 5.921875 0 L 6.25 -2.765625 L 3.28125 -2.765625 L 2.9375 0 L 2.140625 0 L 2.484375 -2.765625 L 0.421875 -2.765625 L 0.421875 -3.5625 L 2.578125 -3.5625 L 2.96875 -6.609375 L 0.890625 -6.609375 L 0.890625 -7.40625 L 3.0625 -7.40625 L 3.390625 -10.15625 L 4.1875 -10.15625 L 3.84375 -7.40625 L 6.84375 -7.40625 L 7.171875 -10.15625 L 7.953125 -10.15625 L 7.625 -7.40625 L 9.671875 -7.40625 L 9.671875 -6.609375 Z M 6.734375 -6.609375 L 3.765625 -6.609375 L 3.375 -3.5625 L 6.359375 -3.5625 Z M 6.734375 -6.609375 "/></g></g></g></g><g fill="#002454" fill-opacity="1"><g transform="translate(10.633248, 14.899585)"><g><path d="M 4.796875 0.09375 C 4.015625 0.09375 3.316406 -0.113281 2.703125 -0.53125 C 2.085938 -0.945312 1.609375 -1.546875 1.265625 -2.328125 C 0.921875 -3.109375 0.75 -4.023438 0.75 -5.078125 C 0.75 -6.128906 0.921875 -7.046875 1.265625 -7.828125 C 1.609375 -8.609375 2.085938 -9.207031 2.703125 -9.625 C 3.316406 -10.039062 4.015625 -10.25 4.796875 -10.25 C 5.585938 -10.25 6.289062 -10.039062 6.90625 -9.625 C 7.519531 -9.207031 8 -8.609375 8.34375 -7.828125 C 8.695312 -7.046875 8.875 -6.128906 8.875 -5.078125 C 8.875 -4.023438 8.695312 -3.109375 8.34375 -2.328125 C 8 -1.546875 7.519531 -0.945312 6.90625 -0.53125 C 6.289062 -0.113281 5.585938 0.09375 4.796875 0.09375 Z M 4.796875 -0.875 C 5.390625 -0.875 5.910156 -1.035156 6.359375 -1.359375 C 6.816406 -1.691406 7.171875 -2.171875 7.421875 -2.796875 C 7.671875 -3.429688 7.796875 -4.191406 7.796875 -5.078125 C 7.796875 -5.972656 7.671875 -6.734375 7.421875 -7.359375 C 7.171875 -7.984375 6.816406 -8.460938 6.359375 -8.796875 C 5.910156 -9.128906 5.390625 -9.296875 4.796875 -9.296875 C 4.210938 -9.296875 3.691406 -9.128906 3.234375 -8.796875 C 2.785156 -8.460938 2.4375 -7.984375 2.1875 -7.359375 C 1.9375 -6.734375 1.8125 -5.972656 1.8125 -5.078125 C 1.8125 -4.191406 1.9375 -3.429688 2.1875 -2.796875 C 2.4375 -2.171875 2.785156 -1.691406 3.234375 -1.359375 C 3.691406 -1.035156 4.210938 -0.875 4.796875 -0.875 Z M 4.796875 -0.875 "/></g></g></g><g fill="#002454" fill-opacity="1"><g transform="translate(20.234084, 14.899585)"><g><path d="M 4.796875 0.09375 C 4.015625 0.09375 3.316406 -0.113281 2.703125 -0.53125 C 2.085938 -0.945312 1.609375 -1.546875 1.265625 -2.328125 C 0.921875 -3.109375 0.75 -4.023438 0.75 -5.078125 C 0.75 -6.128906 0.921875 -7.046875 1.265625 -7.828125 C 1.609375 -8.609375 2.085938 -9.207031 2.703125 -9.625 C 3.316406 -10.039062 4.015625 -10.25 4.796875 -10.25 C 5.585938 -10.25 6.289062 -10.039062 6.90625 -9.625 C 7.519531 -9.207031 8 -8.609375 8.34375 -7.828125 C 8.695312 -7.046875 8.875 -6.128906 8.875 -5.078125 C 8.875 -4.023438 8.695312 -3.109375 8.34375 -2.328125 C 8 -1.546875 7.519531 -0.945312 6.90625 -0.53125 C 6.289062 -0.113281 5.585938 0.09375 4.796875 0.09375 Z M 4.796875 -0.875 C 5.390625 -0.875 5.910156 -1.035156 6.359375 -1.359375 C 6.816406 -1.691406 7.171875 -2.171875 7.421875 -2.796875 C 7.671875 -3.429688 7.796875 -4.191406 7.796875 -5.078125 C 7.796875 -5.972656 7.671875 -6.734375 7.421875 -7.359375 C 7.171875 -7.984375 6.816406 -8.460938 6.359375 -8.796875 C 5.910156 -9.128906 5.390625 -9.296875 4.796875 -9.296875 C 4.210938 -9.296875 3.691406 -9.128906 3.234375 -8.796875 C 2.785156 -8.460938 2.4375 -7.984375 2.1875 -7.359375 C 1.9375 -6.734375 1.8125 -5.972656 1.8125 -5.078125 C 1.8125 -4.191406 1.9375 -3.429688 2.1875 -2.796875 C 2.4375 -2.171875 2.785156 -1.691406 3.234375 -1.359375 C 3.691406 -1.035156 4.210938 -0.875 4.796875 -0.875 Z M 4.796875 -0.875 "/></g></g></g><g fill="#002454" fill-opacity="1"><g transform="translate(29.834921, 14.899585)"><g><path d="M 7.6875 -0.921875 L 7.6875 0 L 0.5625 0 L 0.5625 -0.734375 L 4.796875 -4.875 C 5.328125 -5.394531 5.6875 -5.847656 5.875 -6.234375 C 6.0625 -6.617188 6.15625 -7.003906 6.15625 -7.390625 C 6.15625 -7.984375 5.945312 -8.445312 5.53125 -8.78125 C 5.125 -9.125 4.539062 -9.296875 3.78125 -9.296875 C 2.582031 -9.296875 1.65625 -8.914062 1 -8.15625 L 0.265625 -8.796875 C 0.660156 -9.265625 1.164062 -9.625 1.78125 -9.875 C 2.394531 -10.125 3.085938 -10.25 3.859375 -10.25 C 4.898438 -10.25 5.722656 -10.003906 6.328125 -9.515625 C 6.929688 -9.023438 7.234375 -8.351562 7.234375 -7.5 C 7.234375 -6.976562 7.113281 -6.472656 6.875 -5.984375 C 6.644531 -5.503906 6.207031 -4.953125 5.5625 -4.328125 L 2.109375 -0.921875 Z M 7.6875 -0.921875 "/></g></g></g><g fill="#002454" fill-opacity="1"><g transform="translate(38.072494, 14.899585)"><g><path d="M 9.390625 -2.671875 L 7.359375 -2.671875 L 7.359375 0 L 6.3125 0 L 6.3125 -2.671875 L 0.578125 -2.671875 L 0.578125 -3.421875 L 5.96875 -10.15625 L 7.125 -10.15625 L 1.9375 -3.59375 L 6.34375 -3.59375 L 6.34375 -5.953125 L 7.359375 -5.953125 L 7.359375 -3.59375 L 9.390625 -3.59375 Z M 9.390625 -2.671875 "/></g></g></g><g fill="#002454" fill-opacity="1"><g transform="translate(47.658822, 14.899585)"><g><path d="M 3.421875 -6 C 4.890625 -6 5.960938 -5.734375 6.640625 -5.203125 C 7.316406 -4.671875 7.65625 -3.929688 7.65625 -2.984375 C 7.65625 -2.398438 7.515625 -1.875 7.234375 -1.40625 C 6.960938 -0.945312 6.550781 -0.582031 6 -0.3125 C 5.445312 -0.0390625 4.769531 0.09375 3.96875 0.09375 C 3.238281 0.09375 2.546875 -0.0234375 1.890625 -0.265625 C 1.242188 -0.503906 0.71875 -0.820312 0.3125 -1.21875 L 0.828125 -2.046875 C 1.160156 -1.703125 1.601562 -1.421875 2.15625 -1.203125 C 2.707031 -0.984375 3.304688 -0.875 3.953125 -0.875 C 4.796875 -0.875 5.445312 -1.0625 5.90625 -1.4375 C 6.363281 -1.8125 6.59375 -2.316406 6.59375 -2.953125 C 6.59375 -3.640625 6.332031 -4.160156 5.8125 -4.515625 C 5.289062 -4.878906 4.414062 -5.0625 3.1875 -5.0625 L 1.03125 -5.0625 L 1.546875 -10.15625 L 7.109375 -10.15625 L 7.109375 -9.234375 L 2.46875 -9.234375 L 2.125 -6 Z M 3.421875 -6 "/></g></g></g><g fill="#002454" fill-opacity="1"><g transform="translate(55.867388, 14.899585)"><g><path d="M 9.390625 -2.671875 L 7.359375 -2.671875 L 7.359375 0 L 6.3125 0 L 6.3125 -2.671875 L 0.578125 -2.671875 L 0.578125 -3.421875 L 5.96875 -10.15625 L 7.125 -10.15625 L 1.9375 -3.59375 L 6.34375 -3.59375 L 6.34375 -5.953125 L 7.359375 -5.953125 L 7.359375 -3.59375 L 9.390625 -3.59375 Z M 9.390625 -2.671875 "/></g></g></g></g></g><g transform="matrix(1, 0, 0, 1, 902, 172)"><g clip-path="url(#e6db3e8063)"><g fill="#002454" fill-opacity="1"><g transform="translate(0.332376, 15.052739)"><g><path d="M 6.0625 0.09375 C 5.0625 0.09375 4.15625 -0.128906 3.34375 -0.578125 C 2.539062 -1.023438 1.90625 -1.640625 1.4375 -2.421875 C 0.976562 -3.210938 0.75 -4.097656 0.75 -5.078125 C 0.75 -6.054688 0.976562 -6.9375 1.4375 -7.71875 C 1.90625 -8.507812 2.546875 -9.128906 3.359375 -9.578125 C 4.171875 -10.023438 5.078125 -10.25 6.078125 -10.25 C 6.835938 -10.25 7.535156 -10.125 8.171875 -9.875 C 8.804688 -9.625 9.347656 -9.253906 9.796875 -8.765625 L 9.109375 -8.078125 C 8.316406 -8.890625 7.316406 -9.296875 6.109375 -9.296875 C 5.304688 -9.296875 4.578125 -9.109375 3.921875 -8.734375 C 3.265625 -8.367188 2.75 -7.863281 2.375 -7.21875 C 2 -6.582031 1.8125 -5.867188 1.8125 -5.078125 C 1.8125 -4.285156 2 -3.566406 2.375 -2.921875 C 2.75 -2.285156 3.265625 -1.785156 3.921875 -1.421875 C 4.578125 -1.054688 5.304688 -0.875 6.109375 -0.875 C 7.328125 -0.875 8.328125 -1.28125 9.109375 -2.09375 L 9.796875 -1.40625 C 9.347656 -0.925781 8.800781 -0.554688 8.15625 -0.296875 C 7.519531 -0.0351562 6.820312 0.09375 6.0625 0.09375 Z M 6.0625 0.09375 "/></g></g></g><g fill="#002454" fill-opacity="1"><g transform="translate(10.759867, 15.052739)"><g><path d="M 8.84375 -0.921875 L 8.84375 0 L 1.65625 0 L 1.65625 -10.15625 L 8.625 -10.15625 L 8.625 -9.234375 L 2.734375 -9.234375 L 2.734375 -5.625 L 7.984375 -5.625 L 7.984375 -4.703125 L 2.734375 -4.703125 L 2.734375 -0.921875 Z M 8.84375 -0.921875 "/></g></g></g><g fill="#002454" fill-opacity="1"><g transform="translate(20.462216, 15.052739)"><g><path d="M 8.84375 -0.921875 L 8.84375 0 L 1.65625 0 L 1.65625 -10.15625 L 8.625 -10.15625 L 8.625 -9.234375 L 2.734375 -9.234375 L 2.734375 -5.625 L 7.984375 -5.625 L 7.984375 -4.703125 L 2.734375 -4.703125 L 2.734375 -0.921875 Z M 8.84375 -0.921875 "/></g></g></g><g fill="#002454" fill-opacity="1"><g transform="translate(30.164565, 15.052739)"><g><path d="M 1.65625 -10.15625 L 5.796875 -10.15625 C 6.867188 -10.15625 7.816406 -9.941406 8.640625 -9.515625 C 9.460938 -9.085938 10.097656 -8.488281 10.546875 -7.71875 C 11.003906 -6.945312 11.234375 -6.066406 11.234375 -5.078125 C 11.234375 -4.085938 11.003906 -3.207031 10.546875 -2.4375 C 10.097656 -1.675781 9.460938 -1.078125 8.640625 -0.640625 C 7.816406 -0.210938 6.867188 0 5.796875 0 L 1.65625 0 Z M 5.734375 -0.921875 C 6.617188 -0.921875 7.394531 -1.097656 8.0625 -1.453125 C 8.738281 -1.804688 9.257812 -2.296875 9.625 -2.921875 C 9.988281 -3.546875 10.171875 -4.265625 10.171875 -5.078125 C 10.171875 -5.890625 9.988281 -6.609375 9.625 -7.234375 C 9.257812 -7.859375 8.738281 -8.347656 8.0625 -8.703125 C 7.394531 -9.054688 6.617188 -9.234375 5.734375 -9.234375 L 2.734375 -9.234375 L 2.734375 -0.921875 Z M 5.734375 -0.921875 "/></g></g></g><g fill="#002454" fill-opacity="1"><g transform="translate(42.143855, 15.052739)"><g><path d="M 2.734375 -9.234375 L 2.734375 -5.234375 L 7.984375 -5.234375 L 7.984375 -4.3125 L 2.734375 -4.3125 L 2.734375 0 L 1.65625 0 L 1.65625 -10.15625 L 8.625 -10.15625 L 8.625 -9.234375 Z M 2.734375 -9.234375 "/></g></g></g><g fill="#002454" fill-opacity="1"><g transform="translate(51.324104, 15.052739)"><g><path d="M 2.734375 -9.234375 L 2.734375 -5.234375 L 7.984375 -5.234375 L 7.984375 -4.3125 L 2.734375 -4.3125 L 2.734375 0 L 1.65625 0 L 1.65625 -10.15625 L 8.625 -10.15625 L 8.625 -9.234375 Z M 2.734375 -9.234375 "/></g></g></g></g></g><g transform="matrix(1, 0, 0, 1, 899, 276)"><g clip-path="url(#4c619681df)"><g fill="#002454" fill-opacity="1"><g transform="translate(0.959974, 14.405562)"><g><path d="M 7.515625 -6.609375 L 7.140625 -3.5625 L 9.203125 -3.5625 L 9.203125 -2.765625 L 7.046875 -2.765625 L 6.703125 0 L 5.921875 0 L 6.25 -2.765625 L 3.28125 -2.765625 L 2.9375 0 L 2.140625 0 L 2.484375 -2.765625 L 0.421875 -2.765625 L 0.421875 -3.5625 L 2.578125 -3.5625 L 2.96875 -6.609375 L 0.890625 -6.609375 L 0.890625 -7.40625 L 3.0625 -7.40625 L 3.390625 -10.15625 L 4.1875 -10.15625 L 3.84375 -7.40625 L 6.84375 -7.40625 L 7.171875 -10.15625 L 7.953125 -10.15625 L 7.625 -7.40625 L 9.671875 -7.40625 L 9.671875 -6.609375 Z M 6.734375 -6.609375 L 3.765625 -6.609375 L 3.375 -3.5625 L 6.359375 -3.5625 Z M 6.734375 -6.609375 "/></g></g></g><g fill="#002454" fill-opacity="1"><g transform="translate(11.053902, 14.405562)"><g><path d="M 2.734375 -9.234375 L 2.734375 -5.234375 L 7.984375 -5.234375 L 7.984375 -4.3125 L 2.734375 -4.3125 L 2.734375 0 L 1.65625 0 L 1.65625 -10.15625 L 8.625 -10.15625 L 8.625 -9.234375 Z M 2.734375 -9.234375 "/></g></g></g><g fill="#002454" fill-opacity="1"><g transform="translate(20.234151, 14.405562)"><g><path d="M 3.421875 -6 C 4.890625 -6 5.960938 -5.734375 6.640625 -5.203125 C 7.316406 -4.671875 7.65625 -3.929688 7.65625 -2.984375 C 7.65625 -2.398438 7.515625 -1.875 7.234375 -1.40625 C 6.960938 -0.945312 6.550781 -0.582031 6 -0.3125 C 5.445312 -0.0390625 4.769531 0.09375 3.96875 0.09375 C 3.238281 0.09375 2.546875 -0.0234375 1.890625 -0.265625 C 1.242188 -0.503906 0.71875 -0.820312 0.3125 -1.21875 L 0.828125 -2.046875 C 1.160156 -1.703125 1.601562 -1.421875 2.15625 -1.203125 C 2.707031 -0.984375 3.304688 -0.875 3.953125 -0.875 C 4.796875 -0.875 5.445312 -1.0625 5.90625 -1.4375 C 6.363281 -1.8125 6.59375 -2.316406 6.59375 -2.953125 C 6.59375 -3.640625 6.332031 -4.160156 5.8125 -4.515625 C 5.289062 -4.878906 4.414062 -5.0625 3.1875 -5.0625 L 1.03125 -5.0625 L 1.546875 -10.15625 L 7.109375 -10.15625 L 7.109375 -9.234375 L 2.46875 -9.234375 L 2.125 -6 Z M 3.421875 -6 "/></g></g></g><g fill="#002454" fill-opacity="1"><g transform="translate(28.442717, 14.405562)"><g><path d="M 2.734375 -9.234375 L 2.734375 -5.234375 L 7.984375 -5.234375 L 7.984375 -4.3125 L 2.734375 -4.3125 L 2.734375 0 L 1.65625 0 L 1.65625 -10.15625 L 8.625 -10.15625 L 8.625 -9.234375 Z M 2.734375 -9.234375 "/></g></g></g><g fill="#002454" fill-opacity="1"><g transform="translate(37.622967, 14.405562)"><g><path d="M 7.6875 -0.921875 L 7.6875 0 L 0.5625 0 L 0.5625 -0.734375 L 4.796875 -4.875 C 5.328125 -5.394531 5.6875 -5.847656 5.875 -6.234375 C 6.0625 -6.617188 6.15625 -7.003906 6.15625 -7.390625 C 6.15625 -7.984375 5.945312 -8.445312 5.53125 -8.78125 C 5.125 -9.125 4.539062 -9.296875 3.78125 -9.296875 C 2.582031 -9.296875 1.65625 -8.914062 1 -8.15625 L 0.265625 -8.796875 C 0.660156 -9.265625 1.164062 -9.625 1.78125 -9.875 C 2.394531 -10.125 3.085938 -10.25 3.859375 -10.25 C 4.898438 -10.25 5.722656 -10.003906 6.328125 -9.515625 C 6.929688 -9.023438 7.234375 -8.351562 7.234375 -7.5 C 7.234375 -6.976562 7.113281 -6.472656 6.875 -5.984375 C 6.644531 -5.503906 6.207031 -4.953125 5.5625 -4.328125 L 2.109375 -0.921875 Z M 7.6875 -0.921875 "/></g></g></g><g fill="#002454" fill-opacity="1"><g transform="translate(45.86054, 14.405562)"><g><path d="M 8.84375 -0.921875 L 8.84375 0 L 1.65625 0 L 1.65625 -10.15625 L 8.625 -10.15625 L 8.625 -9.234375 L 2.734375 -9.234375 L 2.734375 -5.625 L 7.984375 -5.625 L 7.984375 -4.703125 L 2.734375 -4.703125 L 2.734375 -0.921875 Z M 8.84375 -0.921875 "/></g></g></g><g fill="#002454" fill-opacity="1"><g transform="translate(55.562889, 14.405562)"><g><path d="M 1.65625 -10.15625 L 5.796875 -10.15625 C 6.867188 -10.15625 7.816406 -9.941406 8.640625 -9.515625 C 9.460938 -9.085938 10.097656 -8.488281 10.546875 -7.71875 C 11.003906 -6.945312 11.234375 -6.066406 11.234375 -5.078125 C 11.234375 -4.085938 11.003906 -3.207031 10.546875 -2.4375 C 10.097656 -1.675781 9.460938 -1.078125 8.640625 -0.640625 C 7.816406 -0.210938 6.867188 0 5.796875 0 L 1.65625 0 Z M 5.734375 -0.921875 C 6.617188 -0.921875 7.394531 -1.097656 8.0625 -1.453125 C 8.738281 -1.804688 9.257812 -2.296875 9.625 -2.921875 C 9.988281 -3.546875 10.171875 -4.265625 10.171875 -5.078125 C 10.171875 -5.890625 9.988281 -6.609375 9.625 -7.234375 C 9.257812 -7.859375 8.738281 -8.347656 8.0625 -8.703125 C 7.394531 -9.054688 6.617188 -9.234375 5.734375 -9.234375 L 2.734375 -9.234375 L 2.734375 -0.921875 Z M 5.734375 -0.921875 "/></g></g></g></g></g><g fill="#002454" fill-opacity="1"><g transform="translate(648.370173, 187.60056)"><g><path d="M 7.515625 -6.609375 L 7.140625 -3.5625 L 9.203125 -3.5625 L 9.203125 -2.765625 L 7.046875 -2.765625 L 6.703125 0 L 5.921875 0 L 6.25 -2.765625 L 3.28125 -2.765625 L 2.9375 0 L 2.140625 0 L 2.484375 -2.765625 L 0.421875 -2.765625 L 0.421875 -3.5625 L 2.578125 -3.5625 L 2.96875 -6.609375 L 0.890625 -6.609375 L 0.890625 -7.40625 L 3.0625 -7.40625 L 3.390625 -10.15625 L 4.1875 -10.15625 L 3.84375 -7.40625 L 6.84375 -7.40625 L 7.171875 -10.15625 L 7.953125 -10.15625 L 7.625 -7.40625 L 9.671875 -7.40625 L 9.671875 -6.609375 Z M 6.734375 -6.609375 L 3.765625 -6.609375 L 3.375 -3.5625 L 6.359375 -3.5625 Z M 6.734375 -6.609375 "/></g></g></g><g fill="#002454" fill-opacity="1"><g transform="translate(658.467661, 187.60056)"><g><path d="M 2.734375 -9.234375 L 2.734375 -5.234375 L 7.984375 -5.234375 L 7.984375 -4.3125 L 2.734375 -4.3125 L 2.734375 0 L 1.65625 0 L 1.65625 -10.15625 L 8.625 -10.15625 L 8.625 -9.234375 Z M 2.734375 -9.234375 "/></g></g></g><g fill="#002454" fill-opacity="1"><g transform="translate(667.651155, 187.60056)"><g><path d="M 2.734375 -9.234375 L 2.734375 -5.234375 L 7.984375 -5.234375 L 7.984375 -4.3125 L 2.734375 -4.3125 L 2.734375 0 L 1.65625 0 L 1.65625 -10.15625 L 8.625 -10.15625 L 8.625 -9.234375 Z M 2.734375 -9.234375 "/></g></g></g><g fill="#002454" fill-opacity="1"><g transform="translate(676.834649, 187.60056)"><g><path d="M 8.0625 -5.234375 C 8.726562 -5.085938 9.238281 -4.800781 9.59375 -4.375 C 9.957031 -3.945312 10.140625 -3.394531 10.140625 -2.71875 C 10.140625 -1.84375 9.816406 -1.171875 9.171875 -0.703125 C 8.535156 -0.234375 7.585938 0 6.328125 0 L 1.65625 0 L 1.65625 -10.15625 L 6.03125 -10.15625 C 7.164062 -10.15625 8.046875 -9.925781 8.671875 -9.46875 C 9.296875 -9.019531 9.609375 -8.378906 9.609375 -7.546875 C 9.609375 -6.984375 9.46875 -6.503906 9.1875 -6.109375 C 8.914062 -5.722656 8.539062 -5.429688 8.0625 -5.234375 Z M 2.734375 -9.28125 L 2.734375 -5.59375 L 5.96875 -5.59375 C 6.789062 -5.59375 7.421875 -5.75 7.859375 -6.0625 C 8.304688 -6.375 8.53125 -6.832031 8.53125 -7.4375 C 8.53125 -8.03125 8.304688 -8.484375 7.859375 -8.796875 C 7.421875 -9.117188 6.789062 -9.28125 5.96875 -9.28125 Z M 6.3125 -0.890625 C 7.21875 -0.890625 7.90625 -1.039062 8.375 -1.34375 C 8.84375 -1.65625 9.078125 -2.140625 9.078125 -2.796875 C 9.078125 -4.066406 8.15625 -4.703125 6.3125 -4.703125 L 2.734375 -4.703125 L 2.734375 -0.890625 Z M 6.3125 -0.890625 "/></g></g></g><g fill="#002454" fill-opacity="1"><g transform="translate(687.773598, 187.60056)"><g><path d="M 4.203125 -5.8125 C 5.273438 -5.75 6.085938 -5.457031 6.640625 -4.9375 C 7.191406 -4.425781 7.46875 -3.753906 7.46875 -2.921875 C 7.46875 -2.335938 7.328125 -1.820312 7.046875 -1.375 C 6.773438 -0.925781 6.363281 -0.566406 5.8125 -0.296875 C 5.257812 -0.0351562 4.582031 0.09375 3.78125 0.09375 C 3.050781 0.09375 2.359375 -0.0234375 1.703125 -0.265625 C 1.046875 -0.503906 0.519531 -0.820312 0.125 -1.21875 L 0.640625 -2.046875 C 0.972656 -1.703125 1.421875 -1.421875 1.984375 -1.203125 C 2.546875 -0.984375 3.144531 -0.875 3.78125 -0.875 C 4.613281 -0.875 5.257812 -1.050781 5.71875 -1.40625 C 6.175781 -1.769531 6.40625 -2.273438 6.40625 -2.921875 C 6.40625 -3.546875 6.175781 -4.035156 5.71875 -4.390625 C 5.257812 -4.753906 4.570312 -4.9375 3.65625 -4.9375 L 2.9375 -4.9375 L 2.9375 -5.703125 L 5.75 -9.234375 L 0.546875 -9.234375 L 0.546875 -10.15625 L 7.078125 -10.15625 L 7.078125 -9.421875 Z M 4.203125 -5.8125 "/></g></g></g><g fill="#002454" fill-opacity="1"><g transform="translate(695.956043, 187.60056)"><g><path d="M 8.03125 -2.71875 L 2.359375 -2.71875 L 1.140625 0 L 0.03125 0 L 4.671875 -10.15625 L 5.734375 -10.15625 L 10.375 0 L 9.25 0 Z M 7.640625 -3.578125 L 5.203125 -9.046875 L 2.765625 -3.578125 Z M 7.640625 -3.578125 "/></g></g></g><g fill="#002454" fill-opacity="1"><g transform="translate(706.358196, 187.60056)"><g><path d="M 6.578125 -5.328125 C 7.210938 -5.117188 7.703125 -4.800781 8.046875 -4.375 C 8.390625 -3.945312 8.5625 -3.429688 8.5625 -2.828125 C 8.5625 -2.234375 8.398438 -1.71875 8.078125 -1.28125 C 7.765625 -0.84375 7.3125 -0.503906 6.71875 -0.265625 C 6.125 -0.0234375 5.421875 0.09375 4.609375 0.09375 C 3.390625 0.09375 2.429688 -0.164062 1.734375 -0.6875 C 1.046875 -1.21875 0.703125 -1.929688 0.703125 -2.828125 C 0.703125 -3.441406 0.867188 -3.957031 1.203125 -4.375 C 1.535156 -4.800781 2.019531 -5.117188 2.65625 -5.328125 C 2.132812 -5.523438 1.738281 -5.816406 1.46875 -6.203125 C 1.195312 -6.585938 1.0625 -7.039062 1.0625 -7.5625 C 1.0625 -8.382812 1.378906 -9.035156 2.015625 -9.515625 C 2.660156 -10.003906 3.523438 -10.25 4.609375 -10.25 C 5.328125 -10.25 5.953125 -10.140625 6.484375 -9.921875 C 7.023438 -9.703125 7.445312 -9.390625 7.75 -8.984375 C 8.050781 -8.578125 8.203125 -8.101562 8.203125 -7.5625 C 8.203125 -7.039062 8.0625 -6.585938 7.78125 -6.203125 C 7.5 -5.816406 7.097656 -5.523438 6.578125 -5.328125 Z M 2.109375 -7.53125 C 2.109375 -6.96875 2.328125 -6.519531 2.765625 -6.1875 C 3.210938 -5.863281 3.828125 -5.703125 4.609375 -5.703125 C 5.398438 -5.703125 6.019531 -5.863281 6.46875 -6.1875 C 6.914062 -6.519531 7.140625 -6.960938 7.140625 -7.515625 C 7.140625 -8.085938 6.910156 -8.535156 6.453125 -8.859375 C 5.992188 -9.191406 5.378906 -9.359375 4.609375 -9.359375 C 3.835938 -9.359375 3.226562 -9.191406 2.78125 -8.859375 C 2.332031 -8.535156 2.109375 -8.09375 2.109375 -7.53125 Z M 4.609375 -0.796875 C 5.515625 -0.796875 6.21875 -0.976562 6.71875 -1.34375 C 7.226562 -1.71875 7.484375 -2.21875 7.484375 -2.84375 C 7.484375 -3.46875 7.226562 -3.960938 6.71875 -4.328125 C 6.21875 -4.691406 5.515625 -4.875 4.609375 -4.875 C 3.722656 -4.875 3.023438 -4.691406 2.515625 -4.328125 C 2.003906 -3.960938 1.75 -3.46875 1.75 -2.84375 C 1.75 -2.207031 2 -1.707031 2.5 -1.34375 C 3.007812 -0.976562 3.710938 -0.796875 4.609375 -0.796875 Z M 4.609375 -0.796875 "/></g></g></g></svg>